<svg width="126" height="60" viewBox="0 0 126 60" fill="none" xmlns="http://www.w3.org/2000/svg">
<path fill-rule="evenodd" clip-rule="evenodd" d="M79.7963 38.7638C79.4045 39.0481 79.1257 39.2728 78.8254 39.4636C77.5788 40.2606 76.3448 41.079 75.0676 41.8252C74.2588 42.2981 73.3467 42.2576 72.4836 41.96C71.6473 41.6727 70.8147 41.3486 70.0334 40.9405C68.7808 40.2857 68.3839 39.0445 67.9951 37.8032C67.3431 35.7237 68.2255 33.944 69.0611 32.1504C69.2157 31.8218 69.4268 31.5198 69.5993 31.1979C69.8454 30.7375 69.7071 30.4966 69.1748 30.529C68.8753 30.5467 68.5563 30.6285 68.288 30.7633C65.9501 31.9412 63.9154 33.4903 62.361 35.6088C61.292 37.0681 60.6349 38.7086 60.197 40.4522C59.9309 41.5122 59.1362 42.0764 58.2932 41.8915C57.1068 41.6308 56.263 39.8842 56.8065 38.8124C56.8927 38.6415 56.9693 38.4596 57.0912 38.3145C58.4434 36.7035 58.9177 34.7109 59.5339 32.7831C59.8945 31.6539 60.2491 30.5209 60.5576 29.3769C60.7077 28.8193 60.8921 28.2506 60.5947 27.651C60.4119 27.279 60.7152 26.9336 61.0199 26.8997C61.7105 26.8223 62.468 26.7199 63.1029 26.9218C63.8002 27.1442 63.8582 27.9707 63.9756 28.6197C64.0455 29.0049 63.989 29.413 63.989 29.9427C64.2693 29.8152 64.47 29.7408 64.6551 29.6362C65.7099 29.041 66.7351 28.3899 67.8204 27.8565C68.8552 27.3483 69.9138 27.6238 70.8861 28.0989C71.3767 28.339 71.6302 28.3118 72.0101 27.8904C72.8538 26.9527 73.7318 26.029 74.7004 25.2224C75.504 24.5542 76.5507 24.3561 77.5974 24.4305C78.2835 24.4784 78.9726 24.6043 79.6394 24.7723C80.4185 24.9704 80.9113 25.6643 80.9835 26.4474C81.1277 28.04 80.4861 29.3961 79.5681 30.5939C77.384 33.4453 74.9093 36.0118 71.7767 37.8747C71.344 38.1325 71.3106 38.4397 71.5105 38.8389C71.8168 39.4459 72.5557 39.7067 73.2337 39.4997C75.1487 38.9163 76.631 37.6544 78.1608 36.4611C78.9778 35.8239 79.8498 35.242 80.5835 34.5216C80.9961 34.1171 81.1938 33.4903 81.4607 32.9489C82.4769 30.8892 83.424 28.7935 84.5034 26.7671C85.637 24.6353 86.906 22.5749 88.0894 20.4689C88.4158 19.887 88.6544 19.2557 88.9205 18.6421C89.3093 17.75 89.9182 17.199 90.9678 17.2926C91.1596 17.3095 91.3551 17.2889 91.5491 17.2896C92.914 17.2918 93.6581 18.4579 92.9876 19.6498C92.3869 20.7164 91.6896 21.7293 91.0124 22.7517C89.0335 25.741 86.9915 28.6956 85.4504 31.9397C84.7197 33.4763 84.0559 35.0527 83.4968 36.657C83.2262 37.4327 83.227 38.3122 83.1794 39.1491C83.1497 39.6964 83.537 39.8783 83.9748 39.5137C84.6967 38.9119 85.3479 38.229 86.0556 37.611C86.6599 37.0836 87.3394 36.6394 87.9125 36.0839C88.2091 35.7959 88.4024 35.3687 88.5481 34.9709C89.6089 32.0877 90.9686 29.3467 92.4598 26.6639C93.531 24.7377 94.6416 22.8313 95.7099 20.902C96.2154 19.9886 96.6354 19.0281 97.1498 18.1183C97.4694 17.5533 97.9772 17.2204 98.6856 17.294C98.9161 17.3183 99.1525 17.3132 99.3829 17.2874C100.959 17.1084 101.452 18.6833 100.885 19.6542C100.412 20.463 99.8973 21.2483 99.3814 22.0306C97.0873 25.5038 94.6929 28.921 92.9631 32.7198C92.2829 34.2122 91.7298 35.7679 91.2117 37.3237C91.0243 37.8872 91.0771 38.5377 91.0778 39.1491C91.0778 39.7015 91.428 39.8665 91.871 39.4975C92.5787 38.9082 93.2299 38.2541 93.9176 37.6382L95.5656 36.2143C95.7017 36.0935 95.8608 35.9278 95.8838 35.765C96.315 32.7809 97.7906 30.3058 99.7026 28.0481C100.321 27.3166 100.94 26.5719 101.65 25.9325C103.08 24.6463 104.936 24.9461 106.012 25.9619C106.315 26.2485 106.485 26.6919 106.662 27.0868C107.031 27.9007 107.298 28.0878 108.212 28.0849C109.294 28.0812 110.377 28.0422 111.455 28.1004C111.878 28.1232 112.323 28.3096 112.698 28.5239C113.172 28.7957 113.129 29.2753 112.642 29.4955C111.267 30.1173 109.836 30.5533 108.312 30.5894C107.805 30.602 107.585 30.7714 107.455 31.2914C106.625 34.5893 105.468 37.7436 102.954 40.2024C102.428 40.7173 101.823 41.2042 101.164 41.521C99.9196 42.1191 98.8343 41.5004 97.8218 40.8227C97.3951 40.5354 96.9855 40.1951 96.6487 39.8091C96.3544 39.4739 96.1901 39.5063 95.9225 39.8047C95.1508 40.6672 94.3346 41.4842 93.2381 41.9468C92.5765 42.2252 91.9327 42.3939 91.173 42.1692C90.0326 41.8304 89.0008 41.37 88.2627 40.4161C87.9876 40.0588 87.801 40.0956 87.4776 40.3755C86.8703 40.9008 86.254 41.44 85.5627 41.84C84.1495 42.6569 82.7928 42.1943 81.5202 41.4378C80.5568 40.8683 79.8758 40.061 79.7963 38.7638ZM98.7674 37.1977C98.8276 37.4651 98.8603 37.8585 99.0082 38.2032C99.1361 38.4979 99.3636 38.9119 99.6052 38.9553C99.8349 38.9973 100.224 38.6828 100.398 38.4279C101.192 37.2567 101.959 36.0641 102.696 34.8553C103.672 33.2575 104.166 31.4955 104.341 29.648C104.372 29.321 104.301 28.9482 104.164 28.6477C103.808 27.8794 103.448 27.8286 102.979 28.5217C102.023 29.9287 101.076 31.346 100.221 32.8163C99.4565 34.1297 98.954 35.5587 98.7674 37.1977ZM77.6159 27.4882C77.6553 27.0639 77.4598 26.9328 77.0919 27.03C76.9848 27.058 76.8852 27.1339 76.7975 27.2054C74.5829 29.0064 72.8717 31.1891 71.7328 33.7997C71.6823 33.9153 71.7499 34.0833 71.7625 34.2269C71.9016 34.196 72.0815 34.2107 72.1751 34.1282C72.6821 33.6855 73.1698 33.2229 73.6589 32.7625C75.1776 31.3327 76.5328 29.7784 77.4554 27.8926C77.5223 27.7549 77.5684 27.6083 77.6159 27.4882ZM54.2299 24.5034C53.8515 24.4636 53.5772 24.4275 53.3014 24.4077C52.4956 24.3487 51.6823 24.3406 50.8847 24.2264C50.2394 24.1336 49.9629 23.7071 49.9629 23.0397L49.9681 22.695C50.0015 21.523 50.4342 21.3477 51.6087 21.5157C52.8152 21.688 54.076 21.6372 55.2989 21.5245C56.9076 21.3772 58.4999 21.0479 60.1041 20.8468C61.0787 20.7253 62.0636 20.6803 63.0442 20.6302C64.328 20.5639 65.3568 21.1746 66.2578 21.9768C66.4823 22.1757 66.5663 22.6736 66.5128 23.0029C66.4095 23.646 64.9019 24.3134 64.2923 23.7101C63.85 23.2732 63.2687 23.1289 62.6294 23.204C61.4221 23.3469 60.2104 23.4618 59.0017 23.5988C58.6939 23.6335 58.5764 23.7926 58.4672 24.1307C58.259 24.776 57.8821 25.3712 57.5536 25.9752C56.1352 28.5902 54.8796 31.2716 54.105 34.1488C53.6278 35.9182 53.1981 37.6994 52.7796 39.4835C52.6896 39.868 52.7074 40.2871 52.7283 40.6871C52.8093 42.212 51.9685 42.441 50.7159 42.0381C50.3509 41.9217 50.0105 41.7265 49.6596 41.5667C49.2544 41.3796 48.9868 41.0599 49.0374 40.6245C49.1563 39.6036 49.2463 38.5679 49.5035 37.5786C49.9621 35.804 50.4862 34.0427 51.075 32.3065C51.6199 30.6948 52.2688 29.1162 52.9044 27.5346C53.294 26.563 53.7422 25.6135 54.2299 24.5034Z" fill="#23719F"/>
<path d="M44.4844 17.962C44.4844 15.7744 42.7086 14 40.5183 14H15.966C13.7758 14 12 15.7744 12 17.962V42.4961C12 44.6846 13.7758 46.459 15.966 46.459H40.5173C42.7086 46.459 44.4844 44.6846 44.4844 42.497V17.962ZM27.75 38.5931C27.75 39.5266 25.669 40.5574 24.6433 40.5574H17.5479C16.5232 40.5574 15.9375 39.5266 15.9375 38.5931V18.6672C15.9375 17.7338 16.5232 17.9344 17.5479 17.9344H24.6433C25.669 17.9344 27.75 17.7338 27.75 18.6672V38.5931ZM41.5312 21.3938V29.7377C41.5312 30.7321 40.2693 31.7049 39.2721 31.7049H32.1157C31.1185 31.7049 30.7031 30.7321 30.7031 29.7367V18.7184C30.7031 17.723 31.1185 17.9344 32.1167 17.9344H39.2731C40.2693 17.9344 41.5312 17.723 41.5312 18.7184V21.3938Z" fill="#23719F"/>
</svg>
