<svg width="120" height="60" viewBox="0 0 120 60" fill="none" xmlns="http://www.w3.org/2000/svg">
<path d="M37.356 37.3V23.773H39.096L47.366 34.666V23.773H49.02V37.3H47.28L39 26.3V37.3H37.346H37.356ZM62.493 36.763C61.3654 37.1797 60.1722 37.3907 58.97 37.386C54.072 37.386 51.622 35.044 51.622 30.339C51.622 25.892 53.985 23.657 58.722 23.657C60.076 23.657 61.342 23.85 62.502 24.217V25.721C61.342 25.271 60.139 25.055 58.914 25.055C55.219 25.055 53.371 26.817 53.371 30.297C53.371 34.057 55.197 35.927 58.828 35.927C59.408 35.927 60.053 35.841 60.762 35.691V31.158H62.502V36.765L62.493 36.763ZM65.286 32.079V23.765H67.026V32.079C67.026 34.679 68.326 35.979 70.926 35.979C73.504 35.979 74.826 34.679 74.826 32.079V23.765H76.566V32.079C76.566 35.624 74.696 37.407 70.936 37.407C67.176 37.407 65.306 35.624 65.306 32.079H65.286ZM81.4 23.773V35.9H88.5V37.318H79.67V23.773H81.41H81.4ZM91.004 37.308H89.178L95.9 22L102.625 37.318H100.691L98.951 33.064H94.481L94.954 31.646H98.37L95.835 25.523L91 37.318L91.004 37.308ZM104.496 37.308V23.773H110.276C112.854 23.773 114.143 24.847 114.143 27.017C114.143 28.779 112.875 30.089 110.363 30.917L115.003 37.297H112.703L108.406 31.217V30.1C110.984 29.692 112.306 28.704 112.306 27.114C112.306 25.868 111.606 25.244 110.158 25.244H106.291V37.3H104.508L104.496 37.308Z" fill="#B52E31"/>
<path d="M5 20.164L18.857 15.224L33.08 20.079L30.78 38.405L18.857 45L7.127 38.5L5 20.164Z" fill="#E23237"/>
<path d="M33.08 20.078L18.857 15.223V45L30.781 38.404L33.08 20.078Z" fill="#B52E31"/>
<path d="M18.88 18.703L10.242 37.9L13.465 37.836L15.205 33.496H22.918L24.818 37.879L27.89 37.943L18.888 18.693L18.88 18.703ZM18.9 24.869L21.822 30.971H16.342L18.9 24.871V24.869Z" fill="white"/>
</svg>
