<svg width="128" height="128" viewBox="0 0 128 128" fill="none" xmlns="http://www.w3.org/2000/svg">
<path fill-rule="evenodd" clip-rule="evenodd" d="M82.128 75.202C81.601 75.588 81.226 75.893 80.822 76.152C79.145 77.234 77.485 78.345 75.767 79.358C74.679 80 73.452 79.945 72.291 79.541C71.166 79.151 70.046 78.711 68.995 78.157C67.31 77.268 66.776 75.583 66.253 73.898C65.376 71.075 66.563 68.659 67.687 66.224C67.895 65.778 68.179 65.368 68.411 64.931C68.742 64.306 68.556 63.979 67.84 64.023C67.437 64.047 67.008 64.158 66.647 64.341C63.502 65.94 60.765 68.043 58.674 70.919C57.236 72.9 56.352 75.127 55.763 77.494C55.405 78.933 54.336 79.699 53.202 79.448C51.606 79.094 50.471 76.723 51.202 75.268C51.318 75.036 51.421 74.789 51.585 74.592C53.404 72.405 54.042 69.7 54.871 67.083C55.356 65.55 55.833 64.012 56.248 62.459C56.45 61.702 56.698 60.93 56.298 60.116C56.052 59.611 56.46 59.142 56.87 59.096C57.799 58.991 58.818 58.852 59.672 59.126C60.61 59.428 60.688 60.55 60.846 61.431C60.94 61.954 60.864 62.508 60.864 63.227C61.241 63.054 61.511 62.953 61.76 62.811C63.179 62.003 64.558 61.119 66.018 60.395C67.41 59.705 68.834 60.079 70.142 60.724C70.802 61.05 71.143 61.013 71.654 60.441C72.789 59.168 73.97 57.914 75.273 56.819C76.354 55.912 77.762 55.643 79.17 55.744C80.093 55.809 81.02 55.98 81.917 56.208C82.965 56.477 83.628 57.419 83.725 58.482C83.919 60.644 83.056 62.485 81.821 64.111C78.883 67.982 75.554 71.466 71.34 73.995C70.758 74.345 70.713 74.762 70.982 75.304C71.394 76.128 72.388 76.482 73.3 76.201C75.876 75.409 77.87 73.696 79.928 72.076C81.027 71.211 82.2 70.421 83.187 69.443C83.742 68.894 84.008 68.043 84.367 67.308C85.734 64.512 87.008 61.667 88.46 58.916C89.985 56.022 91.692 53.225 93.284 50.366C93.723 49.576 94.044 48.719 94.402 47.886C94.925 46.675 95.744 45.927 97.156 46.054C97.414 46.077 97.677 46.049 97.938 46.05C99.774 46.053 100.775 47.636 99.873 49.254C99.065 50.702 98.127 52.077 97.216 53.465C94.554 57.523 91.807 61.534 89.734 65.938C88.751 68.024 87.858 70.164 87.106 72.342C86.742 73.395 86.743 74.589 86.679 75.725C86.639 76.468 87.16 76.715 87.749 76.22C88.72 75.403 89.596 74.476 90.548 73.637C91.361 72.921 92.275 72.318 93.046 71.564C93.445 71.173 93.705 70.593 93.901 70.053C95.328 66.139 97.157 62.418 99.163 58.776C100.604 56.161 102.098 53.573 103.535 50.954C104.215 49.714 104.78 48.41 105.472 47.175C105.902 46.408 106.585 45.956 107.538 46.056C107.848 46.089 108.166 46.082 108.476 46.047C110.596 45.804 111.26 47.942 110.497 49.26C109.86 50.358 109.168 51.424 108.474 52.486C105.388 57.201 102.167 61.84 99.84 66.997C98.925 69.023 98.181 71.135 97.484 73.247C97.232 74.012 97.303 74.895 97.304 75.725C97.304 76.475 97.775 76.699 98.371 76.198C99.323 75.398 100.199 74.51 101.124 73.674L103.341 71.741C103.524 71.577 103.738 71.352 103.769 71.131C104.349 67.08 106.334 63.72 108.906 60.655C109.738 59.662 110.571 58.651 111.526 57.783C113.45 56.037 115.946 56.444 117.393 57.823C117.801 58.212 118.03 58.814 118.268 59.35C118.764 60.455 119.124 60.709 120.353 60.705C121.808 60.7 123.265 60.647 124.715 60.726C125.284 60.757 125.883 61.01 126.388 61.301C127.025 61.67 126.967 62.321 126.312 62.62C124.462 63.464 122.537 64.056 120.487 64.105C119.805 64.122 119.51 64.352 119.334 65.058C118.218 69.535 116.662 73.817 113.28 77.155C112.572 77.854 111.758 78.515 110.872 78.945C109.198 79.757 107.738 78.917 106.376 77.997C105.802 77.607 105.251 77.145 104.798 76.621C104.402 76.166 104.181 76.21 103.821 76.615C102.783 77.786 101.685 78.895 100.21 79.523C99.32 79.901 98.454 80.13 97.432 79.825C95.898 79.365 94.51 78.74 93.517 77.445C93.147 76.96 92.896 77.01 92.461 77.39C91.644 78.103 90.815 78.835 89.885 79.378C87.984 80.487 86.159 79.859 84.447 78.832C83.151 78.059 82.235 76.963 82.128 75.202ZM107.648 73.076C107.729 73.439 107.773 73.973 107.972 74.441C108.144 74.841 108.45 75.403 108.775 75.462C109.084 75.519 109.607 75.092 109.841 74.746C110.91 73.156 111.942 71.537 112.933 69.896C114.246 67.727 114.91 65.335 115.145 62.827C115.188 62.383 115.092 61.877 114.907 61.469C114.429 60.426 113.945 60.357 113.313 61.298C112.027 63.208 110.753 65.132 109.603 67.128C108.575 68.911 107.899 70.851 107.648 73.076ZM79.195 59.895C79.248 59.319 78.985 59.141 78.49 59.273C78.346 59.311 78.212 59.414 78.094 59.511C75.115 61.956 72.813 64.919 71.281 68.463C71.213 68.62 71.304 68.848 71.321 69.043C71.508 69.001 71.75 69.021 71.876 68.909C72.558 68.308 73.214 67.68 73.872 67.055C75.915 65.114 77.738 63.004 78.979 60.444C79.069 60.257 79.131 60.058 79.195 59.895ZM47.736 55.843C47.227 55.789 46.858 55.74 46.487 55.713C45.403 55.633 44.309 55.622 43.236 55.467C42.368 55.341 41.996 54.762 41.996 53.856L42.003 53.388C42.048 51.797 42.63 51.559 44.21 51.787C45.833 52.021 47.529 51.952 49.174 51.799C51.338 51.599 53.48 51.152 55.638 50.879C56.949 50.714 58.274 50.653 59.593 50.585C61.32 50.495 62.704 51.324 63.916 52.413C64.218 52.683 64.331 53.359 64.259 53.806C64.12 54.679 62.092 55.585 61.272 54.766C60.677 54.173 59.895 53.977 59.035 54.079C57.411 54.273 55.781 54.429 54.155 54.615C53.741 54.662 53.583 54.878 53.436 55.337C53.156 56.213 52.649 57.021 52.207 57.841C50.299 61.391 48.61 65.031 47.568 68.937C46.926 71.339 46.348 73.757 45.785 76.179C45.664 76.701 45.688 77.27 45.716 77.813C45.825 79.883 44.694 80.194 43.009 79.647C42.518 79.489 42.06 79.224 41.588 79.007C41.043 78.753 40.683 78.319 40.751 77.728C40.911 76.342 41.032 74.936 41.378 73.593C41.995 71.184 42.7 68.793 43.492 66.436C44.225 64.248 45.098 62.105 45.953 59.958C46.477 58.639 47.08 57.35 47.736 55.843Z" fill="#23719F"/>
<path d="M36 52.028C36 49.804 34.196 48 31.971 48H7.029C4.804 48 3 49.804 3 52.028V76.971C3 79.196 4.804 81 7.029 81H31.97C34.196 81 36 79.196 36 76.972V52.028ZM19 73.003C19 73.952 16.886 75 15.844 75H8.636C7.595 75 7 73.952 7 73.003V52.745C7 51.796 7.595 52 8.636 52H15.844C16.886 52 19 51.796 19 52.745V73.003ZM33 55.517V64C33 65.011 31.718 66 30.705 66H23.435C22.422 66 22 65.011 22 63.999V52.797C22 51.785 22.422 52 23.436 52H30.706C31.718 52 33 51.785 33 52.797V55.517Z" fill="#23719F"/>
</svg>
