<svg width="199" height="60" viewBox="0 0 199 60" fill="none" xmlns="http://www.w3.org/2000/svg">
<path fill-rule="evenodd" clip-rule="evenodd" d="M31.5539 23.4587L28.5531 23.4026L27.5219 27.8322L29.7155 29.7844L31.9473 27.8322L31.0281 25.2045H32.2096L31.5539 23.4587Z" fill="white"/>
<path d="M30.488 22.2976H28.605L28.3488 23.1877H30.2318L30.488 22.2976Z" fill="white"/>
<path fill-rule="evenodd" clip-rule="evenodd" d="M9 22.2328C11.5183 25.973 9.73588 26.5999 11.2204 30.4586C13.5426 31.8947 14.8998 32.2286 16.8515 32.8161C20.7703 33.9935 20.811 38.3096 17.5569 38.8538C16.2213 39.0781 14.3676 38.8423 13.1836 38.4549C13.0983 40.3664 14.2416 41.916 15.6509 43.4668C17.5849 43.505 19.3686 42.9915 21.0046 41.9274C25.0315 39.2756 25.7852 31.9266 22.5209 28.9969C19.7123 26.4776 12.7011 24.7356 9 22.2328Z" fill="white"/>
<path fill-rule="evenodd" clip-rule="evenodd" d="M50.4322 22.2328C47.9139 25.973 49.6963 26.5999 48.2106 30.4586C45.8896 31.8947 44.5311 32.2286 42.5794 32.8161C38.6606 33.9935 38.6212 38.3096 41.8753 38.8538C43.2109 39.0781 45.0646 38.8423 46.2486 38.4549C46.3339 40.3664 45.1894 41.916 43.78 43.4668C41.8473 43.505 40.0624 42.9915 38.4276 41.9274C34.4007 39.2756 33.647 31.9266 36.9113 28.9969C39.7186 26.4776 46.7299 24.7356 50.4322 22.2328Z" fill="white"/>
<path fill-rule="evenodd" clip-rule="evenodd" d="M17.8738 44.3562C18.9522 46.3798 20.9727 48.8304 22.7424 50.399C23.7583 49.2866 25.0213 47.7472 26.3798 45.9619C25.015 44.7487 23.9073 43.2998 23.0556 41.6164C23.0556 41.6164 21.1038 43.0169 20.5831 43.2909C19.683 43.7637 18.7294 44.0772 17.8738 44.3562ZM28.6091 42.9277C32.0631 38.0624 34.2109 33.1435 36.6185 27.7162C35.2995 28.0819 33.7933 28.3024 32.0988 28.3788L29.7154 30.456L27.1793 28.245C26.1404 28.1546 25.0531 28.0258 23.9162 27.8589C24.2854 30.7529 24.8151 32.8096 25.5051 34.0304C26.6446 34.1043 27.7866 34.0903 28.9273 33.9909C27.9979 36.2197 26.1812 38.7161 24.4535 40.4071C26.1697 41.0468 25.7216 42.8959 28.6091 42.9277Z" fill="white"/>
<path fill-rule="evenodd" clip-rule="evenodd" d="M32.0759 38.3619C35.7044 39.2488 38.3627 42.1262 38.3627 45.5414C38.3627 49.6613 34.4911 53 29.7155 53C27.187 53 24.9106 52.0633 23.3293 50.5698C24.344 49.372 25.4912 47.9269 26.693 46.3276C27.2405 47.2082 28.3876 47.816 29.7155 47.816C31.5743 47.816 33.0804 46.6271 33.0804 45.1629C33.0804 43.6974 31.5743 42.5098 29.7155 42.5098C29.6264 42.5098 29.5385 42.5123 29.4507 42.5174C29.6595 42.2192 29.8683 41.9172 30.0758 41.6152C30.7556 40.6225 31.4228 39.5266 32.0759 38.3619Z" fill="white"/>
<path fill-rule="evenodd" clip-rule="evenodd" d="M46.7465 21.992C43.7597 23.3772 41.0224 24.6477 38.5321 25.8022C38.3411 25.1447 38.0878 24.4846 37.772 23.8207C40.806 21.5345 43.3077 19.6485 45.2773 18.164C45.8718 19.4064 46.362 20.682 46.7465 21.992ZM20.8989 25.8022C21.1256 25.0567 21.3789 24.3954 21.6603 23.8207C19.2617 22.0137 16.7599 20.1277 14.1538 18.164C13.5834 19.344 13.0945 20.6196 12.6846 21.992C15.8853 23.4269 18.6238 24.6961 20.8989 25.8022ZM21.9875 23.1848C22.344 22.5451 22.7323 21.9703 23.1524 21.4606C21.5546 19.409 19.9632 17.3637 18.3768 15.3248C17.618 16.2563 16.9484 17.249 16.3653 18.3054C18.3386 20.0181 20.2127 21.6441 21.9875 23.1848ZM23.6057 20.9407C24.0436 20.4692 24.5109 20.0538 25.0074 19.6931C24.1913 17.9269 23.4376 16.2933 22.7425 14.7896C21.9289 15.3949 21.2376 16.0104 20.6672 16.6361C21.7698 18.2519 22.7501 19.6868 23.6057 20.9407ZM25.5536 19.3261C26.059 19.0114 26.5861 18.7565 27.1374 18.559C26.1405 14.1792 25.3397 10.6595 24.735 8C23.5904 8.40523 22.5706 8.89839 21.6768 9.48076C23.1117 13.124 24.4039 16.4067 25.5536 19.3261ZM27.6645 18.3921C28.2132 18.2391 28.767 18.1487 29.3259 18.1206C29.2368 15.4344 29.1426 12.5799 29.042 9.55467C27.9026 9.63495 26.9451 9.79169 26.1711 10.0249C26.7236 13.1215 27.2214 15.9097 27.6645 18.3921ZM30.1064 18.1206C30.1649 16.3391 30.2273 14.4519 30.2935 12.4588C31.0091 12.4843 31.829 12.6181 32.7545 12.8615C32.4413 14.6137 32.1129 16.4576 31.7678 18.3921C31.2548 18.2455 30.7009 18.1538 30.1064 18.1206ZM32.2949 18.559C32.8488 18.7578 33.3771 19.0139 33.8775 19.3261C35.5848 14.9922 36.877 11.7095 37.7555 9.48076C36.6287 8.80282 35.6089 8.30966 34.6974 8C33.6496 12.6016 32.8488 16.1212 32.2949 18.559ZM37.851 12.2728C36.5842 15.0177 35.4422 17.4911 34.4249 19.6931C34.9736 20.1022 35.4409 20.5176 35.8267 20.9407C37.3595 18.6954 38.8415 16.5239 40.2725 14.4277C39.5252 13.6236 38.718 12.9061 37.851 12.2728ZM37.4436 23.1848C37.0069 22.4317 36.6198 21.8569 36.2799 21.4606C37.2411 20.2258 38.2928 18.8738 39.436 17.4057C40.1617 18.3194 40.7372 19.1707 41.1599 19.9595C39.6869 21.2376 38.4481 22.3131 37.4436 23.1848Z" fill="white"/>
<path d="M56.8247 19.4651H68.1354C68.9324 19.5594 69.4786 20.0704 69.7752 20.9981L69.7472 26.2776C69.4926 27.4971 69.1259 28.3127 68.6459 28.7256C68.1672 29.1423 67.3078 29.6214 66.0754 30.1643L67.1105 31.8171C67.8808 33.0277 68.968 33.7222 70.3787 33.9057L70.0744 37.9529L67.9661 37.5591C66.5911 37.2762 65.1397 35.8426 63.6081 33.2519L62.7805 31.6743L60.7244 32.6466L60.7116 37.3349L57.0348 37.3616V33.8662L55.5936 30.7823L57.008 29.8903L57.0348 24.3597L58.835 23.3645L56.001 23.3785L56.8247 19.4651ZM60.7244 23.3785V28.4337L64.6431 26.8829C65.5967 26.5337 66.0754 25.9679 66.0754 25.1893V23.3785H60.7244Z" fill="white"/>
<path d="M73.4101 19.4791H82.5004C83.4807 19.4791 83.9734 20.0971 83.9823 21.3434L83.9963 26.8561C83.9518 27.4882 83.5304 27.9138 82.7385 28.1419C83.566 28.1967 83.9785 28.5904 83.9696 29.3257L83.9429 35.3137C83.9607 36.6441 83.468 37.3119 82.4609 37.3208H73.0791C72.0758 37.4151 71.6238 36.8187 71.7321 35.524L71.7537 32.3459L74.9417 32.3331L74.9824 33.6062H80.7141L80.7409 29.7552L75.7845 29.7692L75.7972 26.5158L80.7141 26.5018L80.7409 22.9975H74.9684L74.9557 24.0322L71.7537 24.0462V21.1816C71.7448 20.0436 72.2999 19.4791 73.4101 19.4791Z" fill="white"/>
<path d="M97.2193 19.5007C99.5478 20.0525 100.779 21.783 100.918 24.691H97.4433C97.4077 23.7722 96.8169 23.3555 95.6698 23.4409H91.0037C90.0412 25.5244 89.5358 27.102 89.4861 28.1686C89.4365 29.2352 89.714 30.2394 90.315 31.1811C90.9095 32.1229 91.5639 32.7944 92.2667 33.1933C92.9695 33.5883 93.9422 33.7272 95.1733 33.6062C96.4083 33.4851 97.5465 32.6874 98.5981 31.2168L100.944 34.1439C99.5835 35.4654 98.4733 36.3485 97.6267 36.7881C96.78 37.2316 95.6571 37.4597 94.2643 37.4775C92.8664 37.4967 91.5906 37.2227 90.4397 36.662C89.285 36.1025 88.2232 35.0665 87.2645 33.5475C86.302 32.0286 85.8729 30.298 85.976 28.3534C86.083 26.4075 86.3376 25.1613 86.7361 24.6107L89.3474 23.4409H86.2256L86.4369 22.1946L86.7361 20.9981L87.3141 19.5007H97.2193Z" fill="white"/>
<path d="M121.041 19.5007C123.37 20.0525 124.601 21.783 124.74 24.691H121.265C121.23 23.7722 120.639 23.3555 119.492 23.4409H114.826C113.863 25.5244 113.358 27.102 113.308 28.1686C113.258 29.2352 113.536 30.2394 114.137 31.1811C114.733 32.1229 115.386 32.7944 116.089 33.1933C116.791 33.5883 117.764 33.7272 118.995 33.6062C120.231 33.4851 121.368 32.6874 122.42 31.2168L124.766 34.1439C123.405 35.4654 122.295 36.3485 121.449 36.7881C120.602 37.2316 119.479 37.4597 118.086 37.4775C116.69 37.4967 115.413 37.2227 114.262 36.662C113.107 36.1025 112.045 35.0665 111.088 33.5475C110.124 32.0286 109.695 30.298 109.798 28.3534C109.905 26.4075 110.161 25.1613 110.559 24.6107L113.169 23.4409H110.049L110.259 22.1946L110.559 20.9981L111.136 19.5007H121.041Z" fill="white"/>
<path d="M130.199 19.2548C129.697 23.8577 129.63 26.9453 129.993 28.5102C130.356 30.0789 130.937 31.315 131.734 32.2248C132.528 33.1347 134.332 33.3552 137.139 32.8837L137.126 19.4383L140.928 19.6626V36.8595L137.126 37.2405V35.0755L136.441 37.4508L135.616 37.6356C133.159 37.6802 131.3 37.3348 130.046 36.5996C128.792 35.8643 127.758 34.3721 126.944 32.1229C126.133 29.8724 125.796 26.6229 125.949 22.3782L126.168 19.9493L130.199 19.2548Z" fill="white"/>
<path d="M142.858 19.4383L152.592 19.4255C153.653 19.6855 154.334 20.2768 154.647 21.1956C154.957 22.1143 155.113 22.921 155.113 23.6104L151.674 24.2973C151.674 23.4715 150.899 23.1223 149.355 23.2434H146.651L154.903 31.334C155.517 32.1228 155.592 33.4494 155.14 35.3137C154.683 36.5014 153.56 37.1781 151.769 37.3348L145.141 37.3208C144.37 37.0659 143.762 36.5779 143.319 35.8553C142.871 35.1341 142.526 34.2382 142.28 33.1716L145.875 31.9521C145.975 32.9473 146.373 33.4316 147.085 33.3946L150.586 33.4086C151.119 33.2876 151.034 32.9015 150.322 32.2515L142.647 24.7407L144.537 23.2434H142.123L142.858 19.4383Z" fill="white"/>
<path d="M168.296 19.5007C170.624 20.0525 171.855 21.783 171.995 24.691H168.52C168.484 23.7722 167.893 23.3555 166.746 23.4409H162.081C161.118 25.5244 160.612 27.102 160.562 28.1686C160.514 29.2352 160.792 30.2394 161.391 31.1811C161.987 32.1229 162.64 32.7944 163.343 33.1933C164.047 33.5883 165.018 33.7272 166.25 33.6062C167.486 33.4851 168.623 32.6874 169.676 31.2168L172.022 34.1439C170.66 35.4654 169.55 36.3485 168.703 36.7881C167.858 37.2316 166.733 37.4597 165.341 37.4775C163.944 37.4967 162.667 37.2227 161.516 36.662C160.361 36.1025 159.299 35.0665 158.342 33.5475C157.38 32.0286 156.949 30.298 157.052 28.3534C157.159 26.4075 157.415 25.1613 157.814 24.6107L160.424 23.4409H157.303L157.513 22.1946L157.814 20.9981L158.392 19.5007H168.296Z" fill="white"/>
<path d="M177.046 19.4255V21.1459L178.067 19.4255H186.727C187.793 19.7212 188.298 21.2261 188.236 23.943V35.7699C188.026 36.7346 187.211 37.2367 185.782 37.2813H175.774C174.287 37.3437 173.423 36.6938 173.191 35.3405V20.2233L177.046 19.4255ZM177.046 23.2969V33.4086H184.367V23.2969H177.046Z" fill="white"/>
<path d="M75.88 45.1693C75.88 45.507 75.7934 45.8116 75.6177 46.0817C75.4446 46.3519 75.1887 46.5634 74.8526 46.7164C74.5165 46.8693 74.1167 46.9457 73.6558 46.9457C73.1033 46.9457 72.6462 46.8412 72.2872 46.6335C72.0338 46.4832 71.8276 46.2818 71.6684 46.0308C71.5093 45.781 71.4291 45.5363 71.4291 45.2993C71.4291 45.1617 71.4775 45.0445 71.5729 44.9451C71.6684 44.8469 71.7894 44.7985 71.9371 44.7985C72.0567 44.7985 72.1573 44.8367 72.2388 44.9132C72.3228 44.9897 72.3929 45.1031 72.4514 45.2547C72.5227 45.4318 72.6004 45.5822 72.6831 45.7007C72.7659 45.8205 72.883 45.9199 73.032 45.9989C73.1835 46.0754 73.3808 46.1149 73.6265 46.1149C73.9614 46.1149 74.2351 46.0371 74.4452 45.8804C74.6552 45.7237 74.7609 45.5274 74.7609 45.2917C74.7609 45.1056 74.7049 44.954 74.5916 44.8393C74.4783 44.7233 74.3306 44.6341 74.1511 44.573C73.9716 44.5118 73.7309 44.4455 73.4305 44.3767C73.0282 44.2824 72.6908 44.1715 72.4209 44.0467C72.1497 43.9192 71.9345 43.7472 71.7754 43.5293C71.6162 43.3114 71.536 43.0412 71.536 42.7163C71.536 42.4079 71.6201 42.1339 71.7881 41.8931C71.9562 41.6548 72.2006 41.47 72.5189 41.3413C72.8372 41.2113 73.2115 41.1476 73.6418 41.1476C73.9856 41.1476 74.2822 41.1909 74.5343 41.275C74.7851 41.3617 74.9939 41.4751 75.1594 41.6165C75.3237 41.758 75.4446 41.9058 75.5223 42.0613C75.5974 42.2167 75.6368 42.3697 75.6368 42.5175C75.6368 42.6513 75.5885 42.7749 75.493 42.8832C75.3975 42.9915 75.2778 43.045 75.1352 43.045C75.0054 43.045 74.9073 43.0119 74.8399 42.9482C74.7711 42.8832 74.6985 42.7762 74.6209 42.6283C74.5177 42.4168 74.3955 42.2511 74.2529 42.1326C74.1103 42.0128 73.8812 41.9542 73.5642 41.9542C73.2713 41.9542 73.0332 42.0179 72.855 42.1479C72.6755 42.2766 72.5851 42.4308 72.5851 42.613C72.5851 42.7252 72.6157 42.822 72.6768 42.9036C72.7379 42.9851 72.8219 43.0552 72.9289 43.1139C73.0371 43.1725 73.1453 43.2184 73.2548 43.2528C73.3643 43.2846 73.5451 43.333 73.7971 43.398C74.1129 43.4719 74.3993 43.5535 74.6552 43.6427C74.9111 43.7319 75.1289 43.8402 75.3096 43.9676C75.4892 44.0951 75.6292 44.2569 75.7298 44.4519C75.8291 44.6469 75.88 44.8864 75.88 45.1693Z" fill="white"/>
<path d="M79.3085 41.1476C79.8904 41.1476 80.3894 41.2648 80.8058 41.5018C81.2221 41.7363 81.5378 42.0715 81.7517 42.5073C81.9656 42.9418 82.0726 43.4528 82.0726 44.039C82.0726 44.4723 82.014 44.866 81.8956 45.2203C81.7785 45.5758 81.604 45.883 81.3685 46.1429C81.1342 46.4016 80.8465 46.6004 80.5053 46.7393C80.1641 46.8756 79.7732 46.9457 79.3327 46.9457C78.8948 46.9457 78.5014 46.8744 78.1563 46.7329C77.8088 46.5915 77.5198 46.3914 77.288 46.134C77.0563 45.8766 76.8806 45.5682 76.7622 45.205C76.6438 44.8431 76.5853 44.4519 76.5853 44.0314C76.5853 43.5994 76.6464 43.2056 76.7699 42.845C76.8946 42.4856 77.0729 42.1811 77.3071 41.9275C77.5414 41.6752 77.8266 41.4815 78.164 41.3489C78.4988 41.2138 78.8808 41.1476 79.3085 41.1476ZM80.9216 44.0314C80.9216 43.621 80.8554 43.2642 80.723 42.9622C80.5906 42.6627 80.4009 42.4346 80.1552 42.2792C79.9107 42.125 79.6268 42.0485 79.3085 42.0485C79.0832 42.0485 78.8731 42.0919 78.6809 42.176C78.4886 42.2626 78.3231 42.3862 78.1843 42.5506C78.0456 42.7137 77.9361 42.9227 77.8559 43.175C77.7757 43.4299 77.7362 43.7153 77.7362 44.0314C77.7362 44.3512 77.7757 44.6379 77.8559 44.8966C77.9361 45.154 78.0507 45.3681 78.1958 45.5376C78.3422 45.7071 78.5103 45.8345 78.7 45.9174C78.8897 46.0027 79.0972 46.0448 79.3251 46.0448C79.6154 46.0448 79.8815 45.9709 80.1259 45.8269C80.3678 45.6816 80.5613 45.4573 80.7065 45.1528C80.8503 44.8495 80.9216 44.4748 80.9216 44.0314Z" fill="white"/>
<path d="M86.3911 42.1186H84.1542V43.5535H86.0244C86.1963 43.5535 86.3262 43.5917 86.4115 43.6695C86.4968 43.7472 86.5388 43.8517 86.5388 43.9817C86.5388 44.1116 86.4968 44.2149 86.4102 44.2913C86.3223 44.3691 86.1937 44.4073 86.0244 44.4073H84.1542V46.2538C84.1542 46.4883 84.1007 46.6616 83.995 46.775C83.8893 46.8897 83.7544 46.9457 83.5889 46.9457C83.4208 46.9457 83.2846 46.8884 83.1789 46.7724C83.0732 46.6577 83.0198 46.4844 83.0198 46.2538V41.9377C83.0198 41.7746 83.044 41.6407 83.0923 41.5375C83.1407 41.4343 83.2158 41.3591 83.319 41.312C83.4221 41.2648 83.5545 41.2419 83.7149 41.2419H86.3911C86.5719 41.2419 86.7068 41.2827 86.7934 41.3617C86.8812 41.4432 86.9258 41.549 86.9258 41.6777C86.9258 41.8115 86.8812 41.9185 86.7934 41.9988C86.7068 42.0791 86.5719 42.1186 86.3911 42.1186Z" fill="white"/>
<path d="M91.4124 42.1823H90.1737V46.2538C90.1737 46.4883 90.1215 46.6616 90.0158 46.775C89.9114 46.8897 89.7764 46.9457 89.6109 46.9457C89.4416 46.9457 89.3041 46.8884 89.1984 46.7724C89.0928 46.6577 89.0393 46.4857 89.0393 46.2538V42.1823H87.8005C87.607 42.1823 87.4631 42.139 87.3689 42.0536C87.2747 41.967 87.2263 41.8536 87.2263 41.7134C87.2263 41.5681 87.276 41.4534 87.374 41.368C87.472 41.2839 87.6146 41.2419 87.8005 41.2419H91.4124C91.6085 41.2419 91.7536 41.2852 91.8504 41.3719C91.9459 41.4598 91.9943 41.5732 91.9943 41.7134C91.9943 41.8536 91.9446 41.967 91.8479 42.0536C91.7511 42.139 91.606 42.1823 91.4124 42.1823Z" fill="white"/>
<path d="M96.6323 45.9658L95.7245 42.6054L94.8079 45.9658C94.7366 46.2219 94.6806 46.4041 94.6385 46.5163C94.5965 46.6259 94.5227 46.7265 94.4183 46.8132C94.3139 46.9011 94.1751 46.9457 94.002 46.9457C93.8607 46.9457 93.7461 46.919 93.6557 46.8667C93.564 46.8145 93.4914 46.7406 93.4354 46.645C93.3794 46.5494 93.3336 46.436 93.2979 46.3047C93.2623 46.1735 93.2304 46.0524 93.2024 45.9403L92.2705 42.1645C92.2145 41.9453 92.1852 41.7784 92.1852 41.6637C92.1852 41.5184 92.2361 41.3961 92.338 41.2967C92.4398 41.1973 92.5671 41.1476 92.7161 41.1476C92.9236 41.1476 93.0624 41.2138 93.1337 41.3464C93.205 41.4789 93.2674 41.6713 93.3208 41.9249L94.0554 45.1986L94.8766 42.1352C94.9377 41.8994 94.9925 41.721 95.0409 41.6C95.0892 41.4764 95.1694 41.3706 95.2789 41.2827C95.3884 41.1922 95.5374 41.1476 95.7245 41.1476C95.9168 41.1476 96.0657 41.1947 96.1714 41.2878C96.2771 41.3795 96.3497 41.4815 96.3904 41.591C96.4311 41.7006 96.4859 41.8816 96.5546 42.1352L97.3847 45.1986L98.1193 41.9249C98.1537 41.7529 98.1881 41.6191 98.2199 41.5222C98.2518 41.4254 98.3065 41.3387 98.3842 41.2623C98.4618 41.1858 98.5739 41.1476 98.7228 41.1476C98.8705 41.1476 98.9953 41.1973 99.0984 41.2954C99.2015 41.3935 99.2537 41.5159 99.2537 41.6637C99.2537 41.7682 99.227 41.9351 99.171 42.1645L98.2377 45.9403C98.1741 46.1939 98.1206 46.3812 98.0786 46.4997C98.0366 46.6195 97.9653 46.7215 97.8647 46.8107C97.7641 46.9011 97.6215 46.9457 97.4382 46.9457C97.2651 46.9457 97.1263 46.9024 97.0219 46.8145C96.9175 46.7291 96.8449 46.631 96.8042 46.5227C96.7622 46.4143 96.7061 46.2283 96.6323 45.9658Z" fill="white"/>
<path d="M103.591 46.2155L103.324 45.5121H101.046L100.779 46.2296C100.675 46.5099 100.586 46.6998 100.512 46.7979C100.439 46.896 100.317 46.9457 100.149 46.9457C100.006 46.9457 99.8802 46.8935 99.7707 46.789C99.6612 46.6845 99.6064 46.566 99.6064 46.4335C99.6064 46.357 99.6192 46.2767 99.6446 46.1964C99.6701 46.1136 99.7121 46.0015 99.7707 45.8549L101.203 42.2142C101.245 42.1097 101.293 41.9848 101.351 41.8383C101.408 41.6904 101.469 41.5694 101.534 41.4725C101.6 41.3757 101.684 41.298 101.79 41.2381C101.896 41.1782 102.027 41.1476 102.182 41.1476C102.341 41.1476 102.472 41.1782 102.578 41.2381C102.684 41.298 102.769 41.3744 102.834 41.4687C102.899 41.563 102.954 41.665 102.998 41.7733C103.043 41.8816 103.1 42.0269 103.167 42.2065L104.632 45.8256C104.746 46.1009 104.803 46.2997 104.803 46.4258C104.803 46.5545 104.75 46.6756 104.642 46.7839C104.534 46.8922 104.402 46.9457 104.25 46.9457C104.161 46.9457 104.084 46.9292 104.019 46.8973C103.957 46.8654 103.903 46.8221 103.859 46.7673C103.817 46.7125 103.771 46.6284 103.721 46.5163C103.67 46.4016 103.628 46.3022 103.591 46.2155ZM101.346 44.6571H103.02L102.176 42.3467L101.346 44.6571Z" fill="white"/>
<path d="M107.16 44.4544H106.762V46.2538C106.762 46.4908 106.709 46.6641 106.605 46.7775C106.501 46.8897 106.364 46.9457 106.198 46.9457C106.015 46.9457 105.875 46.8871 105.776 46.7686C105.677 46.6514 105.627 46.4806 105.627 46.2538V41.9377C105.627 41.693 105.682 41.5159 105.791 41.4063C105.901 41.2967 106.078 41.2419 106.322 41.2419H108.168C108.423 41.2419 108.641 41.2521 108.821 41.2737C109.004 41.2967 109.166 41.34 109.312 41.4063C109.487 41.4802 109.643 41.586 109.779 41.7236C109.913 41.8612 110.016 42.023 110.084 42.204C110.156 42.3862 110.19 42.5799 110.19 42.7851C110.19 43.2031 110.073 43.5369 109.837 43.788C109.601 44.0377 109.243 44.2149 108.764 44.3194C108.965 44.4264 109.159 44.5844 109.342 44.7934C109.526 45.0024 109.69 45.2254 109.834 45.4612C109.976 45.6969 110.088 45.9084 110.17 46.0996C110.25 46.2882 110.289 46.4194 110.289 46.4908C110.289 46.5634 110.267 46.6373 110.219 46.71C110.172 46.7839 110.109 46.8412 110.026 46.8833C109.946 46.9241 109.85 46.9457 109.743 46.9457C109.617 46.9457 109.509 46.9151 109.422 46.8553C109.336 46.7954 109.262 46.7189 109.2 46.6284C109.136 46.5367 109.052 46.4003 108.945 46.2232L108.489 45.4662C108.326 45.1884 108.18 44.9769 108.052 44.8329C107.923 44.6864 107.793 44.587 107.659 44.5334C107.528 44.4799 107.361 44.4544 107.16 44.4544ZM107.809 42.0957H106.762V43.6389H107.779C108.051 43.6389 108.28 43.6159 108.468 43.5688C108.652 43.5216 108.795 43.4401 108.893 43.3267C108.991 43.2133 109.04 43.0565 109.04 42.8577C109.04 42.701 109.001 42.5646 108.921 42.4461C108.843 42.3263 108.734 42.2384 108.592 42.1785C108.461 42.1224 108.2 42.0957 107.809 42.0957Z" fill="white"/>
<path d="M114.957 42.1186H112.399V43.4974H114.754C114.928 43.4974 115.057 43.5369 115.141 43.6147C115.228 43.6911 115.27 43.7943 115.27 43.9205C115.27 44.0479 115.228 44.1524 115.144 44.2314C115.06 44.3117 114.93 44.3525 114.754 44.3525H112.399V45.9505H115.043C115.223 45.9505 115.357 45.9925 115.447 46.0741C115.539 46.1569 115.585 46.2678 115.585 46.4041C115.585 46.5367 115.539 46.645 115.447 46.7278C115.357 46.8094 115.223 46.8514 115.043 46.8514H111.96C111.713 46.8514 111.536 46.7966 111.428 46.687C111.319 46.5775 111.265 46.3991 111.265 46.1557V41.9377C111.265 41.7746 111.289 41.6407 111.337 41.5375C111.386 41.4343 111.461 41.3591 111.564 41.312C111.667 41.2648 111.799 41.2419 111.96 41.2419H114.957C115.138 41.2419 115.273 41.2827 115.359 41.3617C115.447 41.4432 115.492 41.549 115.492 41.6777C115.492 41.8115 115.447 41.9185 115.359 41.9988C115.273 42.0791 115.138 42.1186 114.957 42.1186Z" fill="white"/>
<path d="M119.044 42.4334C119.044 42.1963 119.106 41.9797 119.23 41.7847C119.353 41.5898 119.534 41.4343 119.774 41.3196C120.014 41.2049 120.296 41.1476 120.62 41.1476C120.941 41.1476 121.218 41.2075 121.454 41.3273C121.687 41.447 121.864 41.6051 121.98 41.7975C122.095 41.9912 122.153 42.1938 122.153 42.4028C122.153 42.6882 122.058 42.9367 121.87 43.1483C121.68 43.3598 121.403 43.5752 121.035 43.7943C121.162 43.946 121.281 44.0874 121.391 44.2187C121.501 44.3525 121.606 44.4761 121.71 44.5895C121.811 44.7042 121.903 44.8023 121.988 44.8852C122.027 44.8125 122.085 44.68 122.165 44.4825C122.247 44.2862 122.321 44.1461 122.392 44.0581C122.462 43.9715 122.561 43.9294 122.687 43.9294C122.807 43.9294 122.913 43.9715 123.004 44.0569C123.097 44.1422 123.143 44.2467 123.143 44.3691C123.143 44.4812 123.104 44.6392 123.025 44.8444C122.945 45.0495 122.831 45.2776 122.68 45.5274C122.775 45.6077 122.924 45.7326 123.13 45.8982C123.334 46.0639 123.461 46.176 123.509 46.2359C123.556 46.2958 123.579 46.3761 123.579 46.4755C123.579 46.6068 123.53 46.7189 123.435 46.8094C123.339 46.8999 123.232 46.9457 123.115 46.9457C122.997 46.9457 122.881 46.9075 122.769 46.831C122.657 46.7546 122.417 46.5673 122.053 46.2691C121.888 46.4245 121.716 46.552 121.538 46.6514C121.362 46.7508 121.171 46.8234 120.97 46.8718C120.766 46.9202 120.54 46.9457 120.29 46.9457C119.972 46.9457 119.685 46.8986 119.431 46.8056C119.179 46.7125 118.967 46.5876 118.798 46.4296C118.63 46.2716 118.505 46.0958 118.424 45.9033C118.342 45.7109 118.301 45.5159 118.301 45.3172C118.301 45.1247 118.332 44.9501 118.393 44.7909C118.454 44.6316 118.541 44.4876 118.652 44.3589C118.762 44.2302 118.898 44.1078 119.06 43.9919C119.222 43.8759 119.412 43.7625 119.625 43.6529C119.433 43.4133 119.289 43.2005 119.191 43.0119C119.093 42.8259 119.044 42.6322 119.044 42.4334ZM120.126 44.2658C119.866 44.4162 119.671 44.5666 119.544 44.7169C119.414 44.866 119.35 45.0457 119.35 45.2522C119.35 45.3694 119.373 45.4815 119.42 45.5886C119.468 45.6956 119.536 45.795 119.627 45.8868C119.718 45.9785 119.823 46.0486 119.942 46.097C120.062 46.1455 120.188 46.1697 120.321 46.1697C120.45 46.1697 120.577 46.1493 120.699 46.1085C120.821 46.0677 120.937 46.0091 121.046 45.9352C121.156 45.8587 121.269 45.7657 121.386 45.6536C121.16 45.4446 120.956 45.2369 120.775 45.033C120.594 44.8278 120.378 44.5717 120.126 44.2658ZM120.515 43.2171C120.775 43.0514 120.962 42.9112 121.079 42.7978C121.195 42.6857 121.253 42.5493 121.253 42.3875C121.253 42.2295 121.195 42.097 121.079 41.9899C120.962 41.8829 120.817 41.8293 120.641 41.8293C120.466 41.8293 120.318 41.8841 120.201 41.9937C120.083 42.1033 120.024 42.2333 120.024 42.3799C120.024 42.4563 120.046 42.5379 120.09 42.6271C120.135 42.715 120.189 42.8016 120.256 42.8883C120.322 42.9762 120.408 43.0858 120.515 43.2171Z" fill="white"/>
<path d="M127.49 41.8357V43.4426H129.941V41.8357C129.941 41.6076 129.991 41.4343 130.095 41.3196C130.198 41.2049 130.334 41.1476 130.502 41.1476C130.671 41.1476 130.81 41.2037 130.916 41.3171C131.021 41.4305 131.075 41.6038 131.075 41.8357V46.2538C131.075 46.4857 131.021 46.6577 130.915 46.7724C130.808 46.8884 130.669 46.9457 130.502 46.9457C130.331 46.9457 130.194 46.8884 130.092 46.7711C129.99 46.6552 129.941 46.4832 129.941 46.2538V44.3678H127.49V46.2538C127.49 46.4857 127.436 46.6577 127.329 46.7724C127.222 46.8884 127.084 46.9457 126.917 46.9457C126.746 46.9457 126.609 46.8884 126.507 46.7711C126.406 46.6552 126.355 46.4832 126.355 46.2538V41.8357C126.355 41.6063 126.406 41.4343 126.506 41.3196C126.606 41.2049 126.744 41.1476 126.917 41.1476C127.086 41.1476 127.225 41.2037 127.331 41.3171C127.436 41.4305 127.49 41.6051 127.49 41.8357Z" fill="white"/>
<path d="M135.881 46.2155L135.614 45.5121H133.336L133.069 46.2296C132.964 46.5099 132.875 46.6998 132.801 46.7979C132.727 46.896 132.607 46.9457 132.438 46.9457C132.296 46.9457 132.17 46.8935 132.06 46.789C131.951 46.6845 131.896 46.566 131.896 46.4335C131.896 46.357 131.909 46.2767 131.933 46.1964C131.96 46.1136 132.002 46.0015 132.06 45.8549L133.493 42.2142C133.535 42.1097 133.583 41.9848 133.64 41.8383C133.698 41.6904 133.759 41.5694 133.824 41.4725C133.889 41.3757 133.974 41.298 134.08 41.2381C134.185 41.1782 134.315 41.1476 134.47 41.1476C134.63 41.1476 134.762 41.1782 134.868 41.2381C134.973 41.298 135.057 41.3744 135.124 41.4687C135.188 41.563 135.243 41.665 135.288 41.7733C135.332 41.8816 135.39 42.0269 135.457 42.2065L136.921 45.8256C137.036 46.1009 137.093 46.2997 137.093 46.4258C137.093 46.5545 137.04 46.6756 136.931 46.7839C136.823 46.8922 136.691 46.9457 136.539 46.9457C136.45 46.9457 136.373 46.9292 136.309 46.8973C136.246 46.8654 136.193 46.8221 136.148 46.7673C136.105 46.7125 136.059 46.6284 136.011 46.5163C135.96 46.4016 135.918 46.3022 135.881 46.2155ZM133.635 44.6571H135.308L134.464 42.3467L133.635 44.6571Z" fill="white"/>
<path d="M139.45 44.4544H139.051V46.2538C139.051 46.4908 138.999 46.6641 138.895 46.7775C138.79 46.8897 138.654 46.9457 138.486 46.9457C138.305 46.9457 138.164 46.8871 138.065 46.7686C137.967 46.6514 137.917 46.4806 137.917 46.2538V41.9377C137.917 41.693 137.972 41.5159 138.081 41.4063C138.191 41.2967 138.368 41.2419 138.612 41.2419H140.458C140.713 41.2419 140.93 41.2521 141.111 41.2737C141.293 41.2967 141.456 41.34 141.6 41.4063C141.777 41.4802 141.932 41.586 142.067 41.7236C142.202 41.8612 142.305 42.023 142.374 42.204C142.444 42.3862 142.48 42.5799 142.48 42.7851C142.48 43.2031 142.363 43.5369 142.126 43.788C141.89 44.0377 141.533 44.2149 141.054 44.3194C141.255 44.4264 141.449 44.5844 141.632 44.7934C141.814 45.0024 141.979 45.2254 142.122 45.4612C142.266 45.6969 142.378 45.9084 142.459 46.0996C142.538 46.2882 142.579 46.4194 142.579 46.4908C142.579 46.5634 142.556 46.6373 142.509 46.71C142.462 46.7839 142.398 46.8412 142.316 46.8833C142.234 46.9241 142.14 46.9457 142.033 46.9457C141.906 46.9457 141.799 46.9151 141.712 46.8553C141.626 46.7954 141.552 46.7189 141.488 46.6284C141.426 46.5367 141.342 46.4003 141.233 46.2232L140.779 45.4662C140.616 45.1884 140.47 44.9769 140.342 44.8329C140.212 44.6864 140.083 44.587 139.949 44.5334C139.818 44.4799 139.65 44.4544 139.45 44.4544ZM140.099 42.0957H139.051V43.6389H140.067C140.341 43.6389 140.57 43.6159 140.756 43.5688C140.942 43.5216 141.084 43.4401 141.183 43.3267C141.279 43.2133 141.329 43.0565 141.329 42.8577C141.329 42.701 141.291 42.5646 141.211 42.4461C141.133 42.3263 141.022 42.2384 140.882 42.1785C140.75 42.1224 140.489 42.0957 140.099 42.0957Z" fill="white"/>
<path d="M144.257 41.2419H145.737C146.121 41.2419 146.451 41.2763 146.727 41.3489C147.003 41.4203 147.253 41.5554 147.477 41.7503C148.06 42.2511 148.352 43.0119 148.352 44.0326C148.352 44.3691 148.324 44.6762 148.265 44.954C148.206 45.2318 148.115 45.4828 147.994 45.7058C147.87 45.9288 147.714 46.1289 147.523 46.306C147.373 46.4398 147.208 46.5481 147.029 46.6297C146.851 46.7113 146.658 46.7686 146.453 46.8017C146.25 46.8349 146.017 46.8514 145.759 46.8514H144.28C144.074 46.8514 143.918 46.8196 143.813 46.7571C143.708 46.6947 143.641 46.6068 143.609 46.4934C143.577 46.3799 143.562 46.2321 143.562 46.0524V41.9377C143.562 41.693 143.617 41.5159 143.726 41.4063C143.836 41.2967 144.013 41.2419 144.257 41.2419ZM144.696 42.1428V45.9505H145.557C145.745 45.9505 145.894 45.9454 146.001 45.9352C146.108 45.9237 146.219 45.8995 146.334 45.8587C146.448 45.8167 146.548 45.7593 146.632 45.6867C147.011 45.3656 147.202 44.8113 147.202 44.025C147.202 43.4719 147.118 43.0565 146.951 42.7813C146.784 42.506 146.578 42.3302 146.334 42.255C146.088 42.1811 145.793 42.1428 145.446 42.1428H144.696Z" fill="white"/>
<path d="M153.51 45.9658L152.604 42.6054L151.687 45.9658C151.615 46.2219 151.559 46.4041 151.517 46.5163C151.476 46.6259 151.401 46.7265 151.296 46.8132C151.192 46.9011 151.055 46.9457 150.88 46.9457C150.74 46.9457 150.624 46.919 150.535 46.8667C150.443 46.8145 150.371 46.7406 150.315 46.645C150.258 46.5494 150.213 46.436 150.177 46.3047C150.14 46.1735 150.11 46.0524 150.081 45.9403L149.149 42.1645C149.093 41.9453 149.065 41.7784 149.065 41.6637C149.065 41.5184 149.115 41.3961 149.217 41.2967C149.319 41.1973 149.445 41.1476 149.595 41.1476C149.803 41.1476 149.94 41.2138 150.013 41.3464C150.083 41.4789 150.145 41.6713 150.199 41.9249L150.934 45.1986L151.756 42.1352C151.817 41.8994 151.872 41.721 151.92 41.6C151.969 41.4764 152.048 41.3706 152.157 41.2827C152.268 41.1922 152.416 41.1476 152.604 41.1476C152.796 41.1476 152.944 41.1947 153.05 41.2878C153.155 41.3795 153.229 41.4815 153.27 41.591C153.309 41.7006 153.364 41.8816 153.434 42.1352L154.263 45.1986L154.997 41.9249C155.033 41.7529 155.067 41.6191 155.098 41.5222C155.131 41.4254 155.186 41.3387 155.262 41.2623C155.341 41.1858 155.453 41.1476 155.602 41.1476C155.749 41.1476 155.875 41.1973 155.978 41.2954C156.081 41.3935 156.133 41.5159 156.133 41.6637C156.133 41.7682 156.105 41.9351 156.049 42.1645L155.116 45.9403C155.052 46.1939 154.999 46.3812 154.957 46.4997C154.916 46.6195 154.843 46.7215 154.743 46.8107C154.644 46.9011 154.501 46.9457 154.316 46.9457C154.143 46.9457 154.004 46.9024 153.9 46.8145C153.797 46.7291 153.723 46.631 153.682 46.5227C153.642 46.4143 153.584 46.2283 153.51 45.9658Z" fill="white"/>
<path d="M160.471 46.2155L160.203 45.5121H157.926L157.658 46.2296C157.554 46.5099 157.465 46.6998 157.391 46.7979C157.317 46.896 157.196 46.9457 157.028 46.9457C156.886 46.9457 156.759 46.8935 156.65 46.789C156.539 46.6845 156.484 46.566 156.484 46.4335C156.484 46.357 156.498 46.2767 156.523 46.1964C156.549 46.1136 156.59 46.0015 156.65 45.8549L158.082 42.2142C158.123 42.1097 158.171 41.9848 158.229 41.8383C158.287 41.6904 158.348 41.5694 158.413 41.4725C158.478 41.3757 158.564 41.298 158.669 41.2381C158.775 41.1782 158.905 41.1476 159.06 41.1476C159.219 41.1476 159.352 41.1782 159.457 41.2381C159.563 41.298 159.647 41.3744 159.713 41.4687C159.778 41.563 159.833 41.665 159.877 41.7733C159.922 41.8816 159.979 42.0269 160.047 42.2065L161.511 45.8256C161.625 46.1009 161.683 46.2997 161.683 46.4258C161.683 46.5545 161.629 46.6756 161.521 46.7839C161.413 46.8922 161.28 46.9457 161.128 46.9457C161.04 46.9457 160.962 46.9292 160.899 46.8973C160.836 46.8654 160.783 46.8221 160.738 46.7673C160.695 46.7125 160.649 46.6284 160.599 46.5163C160.548 46.4016 160.508 46.3022 160.471 46.2155ZM158.224 44.6571H159.898L159.054 42.3467L158.224 44.6571Z" fill="white"/>
<path d="M164.039 44.4544H163.641V46.2538C163.641 46.4908 163.589 46.6641 163.484 46.7775C163.38 46.8897 163.242 46.9457 163.076 46.9457C162.895 46.9457 162.754 46.8871 162.654 46.7686C162.555 46.6514 162.505 46.4806 162.505 46.2538V41.9377C162.505 41.693 162.561 41.5159 162.671 41.4063C162.78 41.2967 162.957 41.2419 163.202 41.2419H165.048C165.301 41.2419 165.52 41.2521 165.701 41.2737C165.882 41.2967 166.046 41.34 166.19 41.4063C166.367 41.4802 166.522 41.586 166.657 41.7236C166.792 41.8612 166.895 42.023 166.964 42.204C167.034 42.3862 167.07 42.5799 167.07 42.7851C167.07 43.2031 166.952 43.5369 166.716 43.788C166.48 44.0377 166.122 44.2149 165.644 44.3194C165.845 44.4264 166.037 44.5844 166.222 44.7934C166.404 45.0024 166.568 45.2254 166.712 45.4612C166.856 45.6969 166.968 45.9084 167.049 46.0996C167.128 46.2882 167.169 46.4194 167.169 46.4908C167.169 46.5634 167.145 46.6373 167.098 46.71C167.052 46.7839 166.987 46.8412 166.905 46.8833C166.824 46.9241 166.728 46.9457 166.621 46.9457C166.495 46.9457 166.388 46.9151 166.301 46.8553C166.215 46.7954 166.14 46.7189 166.078 46.6284C166.015 46.5367 165.93 46.4003 165.823 46.2232L165.369 45.4662C165.206 45.1884 165.059 44.9769 164.931 44.8329C164.802 44.6864 164.672 44.587 164.538 44.5334C164.406 44.4799 164.239 44.4544 164.039 44.4544ZM164.689 42.0957H163.641V43.6389H164.657C164.929 43.6389 165.16 43.6159 165.346 43.5688C165.532 43.5216 165.674 43.4401 165.771 43.3267C165.869 43.2133 165.919 43.0565 165.919 42.8577C165.919 42.701 165.879 42.5646 165.8 42.4461C165.721 42.3263 165.612 42.2384 165.472 42.1785C165.339 42.1224 165.078 42.0957 164.689 42.0957Z" fill="white"/>
<path d="M171.835 42.1186H169.278V43.4974H171.632C171.807 43.4974 171.935 43.5369 172.021 43.6147C172.106 43.6911 172.148 43.7943 172.148 43.9205C172.148 44.0479 172.106 44.1524 172.023 44.2314C171.938 44.3117 171.809 44.3525 171.632 44.3525H169.278V45.9505H171.923C172.101 45.9505 172.236 45.9925 172.326 46.0741C172.417 46.1569 172.463 46.2678 172.463 46.4041C172.463 46.5367 172.417 46.645 172.326 46.7278C172.236 46.8094 172.101 46.8514 171.923 46.8514H168.838C168.592 46.8514 168.414 46.7966 168.306 46.687C168.197 46.5775 168.143 46.3991 168.143 46.1557V41.9377C168.143 41.7746 168.168 41.6407 168.217 41.5375C168.265 41.4343 168.34 41.3591 168.443 41.312C168.546 41.2648 168.677 41.2419 168.838 41.2419H171.835C172.017 41.2419 172.151 41.2827 172.238 41.3617C172.326 41.4432 172.37 41.549 172.37 41.6777C172.37 41.8115 172.326 41.9185 172.238 41.9988C172.151 42.0791 172.017 42.1186 171.835 42.1186Z" fill="white"/>
</svg>
