<svg width="160" height="60" viewBox="0 0 160 60" fill="none" xmlns="http://www.w3.org/2000/svg">
<path d="M49.808 38.7693V20.7333H52.128L63.1547 35.2573V20.7333H65.36V38.7693H63.04L52 24.1027V38.7693H49.7947H49.808ZM83.324 38.0533C81.8205 38.6089 80.2295 38.8903 78.6267 38.884C72.096 38.884 68.8293 35.7613 68.8293 29.488C68.8293 23.5587 71.98 20.5787 78.296 20.5787C80.1013 20.5787 81.7893 20.836 83.336 21.3253V23.3307C81.7893 22.7307 80.1853 22.4427 78.552 22.4427C73.6253 22.4427 71.1613 24.792 71.1613 29.432C71.1613 34.4453 73.596 36.9387 78.4373 36.9387C79.2107 36.9387 80.0707 36.824 81.016 36.624V30.58H83.336V38.056L83.324 38.0533ZM87.048 31.808V20.7227H89.368V31.808C89.368 35.2747 91.1013 37.008 94.568 37.008C98.0053 37.008 99.768 35.2747 99.768 31.808V20.7227H102.088V31.808C102.088 36.5347 99.5947 38.912 94.5813 38.912C89.568 38.912 87.0747 36.5347 87.0747 31.808H87.048ZM108.533 20.7333V36.9027H118V38.7933H106.227V20.7333H108.547H108.533ZM121.339 38.78H118.904L127.867 18.3693L136.833 38.7933H134.255L131.935 33.1213H125.975L126.605 31.2307H131.16L127.78 23.0667L121.333 38.7933L121.339 38.78ZM139.328 38.78V20.7333H147.035C150.472 20.7333 152.191 22.1653 152.191 25.0587C152.191 27.408 150.5 29.1547 147.151 30.2587L153.337 38.7653H150.271L144.541 30.6587V29.1693C147.979 28.6253 149.741 27.308 149.741 25.188C149.741 23.5267 148.808 22.6947 146.877 22.6947H141.721V38.7693H139.344L139.328 38.78Z" fill="#B52E31"/>
<path d="M6.66666 15.9213L25.1427 9.33466L44.1067 15.808L41.04 40.2427L25.1427 49.036L9.50266 40.3693L6.66666 15.9213Z" fill="#E23237"/>
<path d="M44.1067 15.8066L25.1427 9.33331V49.036L41.0413 40.2413L44.1067 15.8066Z" fill="#B52E31"/>
<path d="M25.1733 13.9733L13.656 39.5693L17.9533 39.484L20.2733 33.6973H30.5573L33.0907 39.5413L37.1867 39.6266L25.184 13.96L25.1733 13.9733ZM25.2 22.1946L29.096 30.3306H21.7893L25.2 22.1973V22.1946Z" fill="white"/>
</svg>
