<svg width="239" height="60" viewBox="0 0 239 60" fill="none" xmlns="http://www.w3.org/2000/svg">
<path d="M37.3092 38.1085L49.2742 29.8415C52.6354 27.2821 55.0453 25.153 53.5444 22.3445C52.2549 19.9663 49.5067 20.4646 44.8349 22.0501C40.5224 23.5223 34.8148 25.674 31.3056 27.0556C30.8828 27.2141 30.5869 26.6026 30.9674 26.3308C35.1953 23.2731 40.0362 19.5586 42.5518 17.1578C44.1796 15.6176 44.391 13.7377 43.5243 12.6053C42.7844 11.6313 41.812 10.6348 37.2035 12.2429C33.8846 13.4207 29.6567 15.3232 25.8516 16.9766C25.45 17.1578 25.1329 16.5916 25.4711 16.2971C26.3801 15.4817 28.1558 14.0322 29.1282 12.9224C30.6714 11.1784 30.6926 9.47966 29.9104 8.36984C29.5088 7.78095 28.5998 6.80703 26.0419 7.03352C23.9279 7.21472 21.4757 7.69036 18.178 8.66428C15.7681 9.38906 16.1063 13.398 19.5309 12.7412C20.3976 12.5826 21.6449 12.3108 22.5539 12.107C22.9344 12.0164 23.188 12.56 22.8709 12.8091C20.5879 14.7117 17.882 17.0446 16.6348 18.245C15.0282 19.7851 14.3517 21.4385 15.4298 22.9787C16.5502 24.5415 18.7487 24.0659 21.3912 23.2505C23.0189 22.7522 25.5557 21.8236 27.3737 21.1667C27.7965 21.0082 28.0713 21.6424 27.6908 21.8915C24.3507 24.1565 18.643 27.9389 15.7258 30.1585C12.3646 32.7179 9.9547 34.847 11.4556 37.6555C12.7451 40.0337 15.4933 39.5354 20.1651 37.9499C24.4776 36.4777 30.1852 34.326 33.6944 32.9444C34.1172 32.7859 34.4131 33.3974 34.0326 33.6692C29.8047 36.7269 24.9638 40.4414 22.4482 42.8422C20.8204 44.3824 20.609 46.2623 21.4757 47.3947C22.2156 48.3687 23.188 49.3652 27.7965 47.7571C31.1154 46.5794 35.3433 44.6768 39.1484 43.0234C39.55 42.8422 39.8671 43.4084 39.5289 43.7029C38.6199 44.5183 36.8442 45.9678 35.8718 47.0776C34.3286 48.8216 34.3074 50.5203 35.0896 51.6302C35.4912 52.219 36.4002 53.193 38.9581 52.9665C41.0721 52.7853 43.5243 52.3096 46.822 51.3357C49.2319 50.6109 48.8937 46.602 45.4691 47.2588C44.6024 47.4174 43.3551 47.6892 42.4461 47.893C42.0656 47.9836 41.812 47.44 42.1291 47.1909C44.4121 45.2657 47.0968 42.9328 48.3441 41.7324C49.9507 40.1922 50.6271 38.5388 49.549 36.9987C48.4286 35.4359 46.2301 35.9115 43.5877 36.7269C41.9599 37.2252 39.4232 38.1538 37.6052 38.8106C37.2247 38.9918 36.9287 38.3576 37.3092 38.1085Z" fill="#AE1C59"/>
<path d="M105.486 26.7872C105.059 26.1194 104.552 25.5049 103.939 24.9974C103.272 24.4364 102.498 23.9822 101.592 23.6617C100.685 23.3411 99.7247 23.1808 98.6311 23.1808C96.8175 23.1808 95.1906 23.6349 93.7237 24.5699C92.2567 25.4782 91.1099 26.7605 90.2564 28.3901C89.4029 30.0196 88.9762 31.8629 88.9762 33.9466C88.9762 36.0303 89.4029 37.8469 90.2297 39.4764C91.0832 41.106 92.2034 42.3883 93.5903 43.35C95.0039 44.285 96.5508 44.7658 98.2577 44.7658C99.9647 44.7658 100.205 44.6056 101.112 44.285C101.989 43.975 102.822 43.553 103.592 43.0294C104.339 42.4951 104.952 41.9074 105.432 41.2396C105.432 41.2396 105.432 41.2129 105.459 41.2129V44.3918H109.566V23.6617H105.459V26.7872H105.486ZM104.846 37.5797C104.312 38.6483 103.565 39.4764 102.632 40.0909C101.698 40.7053 100.605 40.9991 99.3513 40.9991C98.0977 40.9991 97.0842 40.7053 96.1507 40.0909C95.2172 39.4764 94.4705 38.6483 93.937 37.5797C93.4036 36.5112 93.1369 35.309 93.1369 33.9199C93.1369 32.5308 93.4036 31.382 93.937 30.3402C94.4705 29.2983 95.2172 28.4702 96.1507 27.8558C97.0842 27.2414 98.1511 26.9475 99.3513 26.9475C100.551 26.9475 101.672 27.2414 102.632 27.8558C103.565 28.4702 104.312 29.2983 104.846 30.3402C105.379 31.382 105.646 32.5842 105.646 33.9199C105.646 35.2556 105.379 36.5112 104.846 37.5797ZM113.754 14.8994H117.808V44.3651H113.754V14.8994ZM135.331 34.6412C134.824 34.1069 134.157 33.6528 133.304 33.252C132.45 32.8513 131.357 32.4773 130.05 32.13C129.143 31.9163 128.423 31.7026 127.836 31.4622C127.249 31.2218 126.823 31.0081 126.529 30.7943C126.262 30.5806 126.049 30.3402 125.916 30.0196C125.782 29.7258 125.676 29.4052 125.649 29.0579C125.649 28.6572 125.729 28.3099 125.889 27.9894C126.049 27.6688 126.289 27.4016 126.582 27.1879C126.876 26.9742 127.249 26.8139 127.703 26.7071C128.156 26.6002 128.636 26.5468 129.196 26.5468C129.756 26.5468 130.236 26.6536 130.85 26.8674C131.463 27.0811 132.05 27.3749 132.637 27.7489C133.224 28.1229 133.784 28.5771 134.264 29.0846L136.584 26.5201C136.024 25.8255 135.357 25.2378 134.53 24.7302C133.704 24.2227 132.824 23.8487 131.863 23.5815C130.903 23.3144 129.943 23.1808 128.956 23.1808C127.969 23.1808 126.956 23.3144 126.049 23.6082C125.142 23.9021 124.342 24.3028 123.675 24.8638C123.009 25.3981 122.475 26.0392 122.102 26.7605C121.728 27.4818 121.542 28.2832 121.542 29.1381C121.542 29.9929 121.622 30.5005 121.808 31.0882C121.995 31.6759 122.288 32.2369 122.689 32.7178C123.222 33.3589 123.969 33.9199 124.929 34.4275C125.889 34.935 127.143 35.3625 128.663 35.7632C129.543 36.0036 130.29 36.2173 130.85 36.4577C131.41 36.6715 131.837 36.8852 132.103 37.0722C132.61 37.4996 132.85 38.0339 132.85 38.7284C132.85 39.423 132.77 39.4764 132.61 39.8237C132.45 40.1443 132.21 40.4381 131.917 40.6786C131.623 40.919 131.25 41.106 130.85 41.2129C130.45 41.3197 129.996 41.3999 129.516 41.3999C128.343 41.3999 127.276 41.1861 126.342 40.7854C125.409 40.3847 124.555 39.7169 123.755 38.7819L121.008 41.1594C121.913 42.3357 123.108 43.2562 124.475 43.8308C125.862 44.4453 127.436 44.7391 129.17 44.7391C130.903 44.7391 131.837 44.472 132.957 43.9377C134.077 43.4034 134.984 42.6821 135.651 41.7471C136.317 40.8121 136.664 39.7436 136.664 38.5682C136.664 37.3927 136.557 37.0187 136.344 36.3509C136.237 35.7365 135.864 35.1487 135.331 34.6412ZM155.627 26.7872C155.201 26.1194 154.694 25.5049 154.08 24.9974C153.414 24.4364 152.64 23.9822 151.733 23.6617C150.827 23.3411 149.866 23.1808 148.773 23.1808C146.959 23.1808 145.332 23.6349 143.865 24.5699C142.398 25.4782 141.252 26.7605 140.398 28.3901C139.545 30.0196 139.118 31.8629 139.118 33.9466C139.118 36.0303 139.545 37.8469 140.371 39.4764C141.225 41.106 142.345 42.3883 143.732 43.35C145.146 44.285 146.693 44.7658 148.399 44.7658C150.106 44.7658 150.346 44.6056 151.253 44.285C152.131 43.975 152.964 43.553 153.734 43.0294C154.48 42.4951 155.094 41.9074 155.574 41.2396V41.2129V44.3918H159.681V23.6617H155.574V26.7872H155.627ZM154.987 37.5797C154.454 38.6483 153.707 39.4764 152.774 40.0909C151.84 40.7053 150.747 40.9991 149.493 40.9991C148.239 40.9991 147.226 40.7053 146.292 40.0909C145.359 39.4764 144.612 38.6483 144.079 37.5797C143.545 36.5112 143.279 35.309 143.279 33.9199C143.279 32.5308 143.545 31.382 144.079 30.3402C144.612 29.2983 145.359 28.4702 146.292 27.8558C147.226 27.2414 148.293 26.9475 149.493 26.9475C150.693 26.9475 151.813 27.2414 152.774 27.8558C153.707 28.4702 154.454 29.2983 154.987 30.3402C155.521 31.382 155.787 32.5842 155.787 33.9199C155.787 35.2556 155.521 36.5112 154.987 37.5797ZM191.633 24.2227C190.62 23.5815 189.34 23.2877 187.793 23.2877C186.246 23.2877 186.352 23.3945 185.632 23.6349C184.886 23.8754 184.192 24.1959 183.552 24.6234C182.885 25.0508 182.298 25.5316 181.792 26.0659C181.312 26.5468 180.965 27.0811 180.672 27.6154C180.432 26.8674 180.085 26.1995 179.685 25.6385C179.098 24.8371 178.378 24.2494 177.471 23.8487C176.564 23.4479 175.551 23.2609 174.35 23.2609C173.15 23.2609 172.75 23.3945 171.977 23.6884C171.203 23.9822 170.483 24.3562 169.816 24.8638C169.15 25.3446 168.59 25.9056 168.109 26.5468C168.029 26.6804 167.923 26.7872 167.843 26.9208V23.6082H163.735V44.3384H167.843V31.8896C167.843 31.1951 167.976 30.5539 168.243 29.9662C168.509 29.3785 168.883 28.8709 169.336 28.4168C169.816 27.9894 170.35 27.6421 170.99 27.4016C171.646 27.1522 172.342 27.0254 173.044 27.0276C173.79 27.0276 174.644 27.2146 175.257 27.6154C175.871 28.0161 176.324 28.5771 176.644 29.3251C176.964 30.0731 177.124 30.9813 177.124 32.0766V44.3651H181.232V31.9698C181.232 31.2485 181.365 30.6073 181.632 30.0196C181.898 29.4319 182.272 28.8976 182.725 28.4702C183.205 28.0161 183.765 27.6688 184.406 27.4284C185.046 27.1879 185.739 27.0544 186.486 27.0544C187.233 27.0544 188.219 27.2414 188.806 27.6154C189.42 27.9894 189.873 28.5503 190.166 29.2983C190.46 30.0463 190.62 31.0081 190.62 32.2102V44.4186H194.727V31.9698C194.727 30.0463 194.461 28.4435 193.954 27.1612C193.42 25.8255 192.647 24.8638 191.633 24.2227ZM198.835 23.6349H202.889V44.3651H198.835V23.6349Z" fill="#63337B"/>
<path d="M200.862 19.6545C202.305 19.6545 203.475 18.5063 203.475 17.0899C203.475 15.6736 202.305 14.5254 200.862 14.5254C199.418 14.5254 198.248 15.6736 198.248 17.0899C198.248 18.5063 199.418 19.6545 200.862 19.6545Z" fill="#63337B"/>
<path d="M222.839 26.1995C222.492 25.7988 222.065 25.4248 221.585 25.0508C220.838 24.4898 219.985 24.0624 219.051 23.7151C218.118 23.3678 217.131 23.2075 216.118 23.2075C214.277 23.2075 212.624 23.6617 211.183 24.5967C209.716 25.5316 208.57 26.8139 207.743 28.4168C206.889 30.0463 206.489 31.8896 206.489 33.9733C206.489 36.057 206.916 37.9003 207.769 39.5299C208.623 41.1594 209.796 42.415 211.263 43.35C212.73 44.285 214.411 44.7391 216.278 44.7391C218.145 44.7391 218.091 44.5788 218.945 44.2583C219.825 43.9377 220.598 43.5103 221.318 43.0027C221.959 42.5486 222.465 42.041 222.865 41.5067V53.0472H226.919V23.5815H222.865V26.1995H222.839ZM222.199 37.6064C221.665 38.6483 220.918 39.4764 219.958 40.0909C219.025 40.7053 217.931 40.9991 216.678 40.9991C215.424 40.9991 214.357 40.7053 213.397 40.0909C212.464 39.4764 211.717 38.6483 211.183 37.5797C210.65 36.5112 210.383 35.309 210.383 33.9733C210.383 32.6376 210.65 31.4355 211.183 30.3669C211.69 29.3434 212.452 28.4689 213.397 27.8291C214.331 27.2146 215.424 26.8941 216.678 26.8941C217.931 26.8941 218.998 27.1879 219.958 27.8024C220.892 28.4168 221.638 29.2449 222.199 30.3135C222.732 31.382 222.999 32.5842 222.999 33.9733C222.999 35.3625 222.732 36.5646 222.199 37.6064ZM81.5083 24.5967C80.0414 23.6617 78.3611 23.2075 76.4941 23.2075C74.6272 23.2075 74.6805 23.3678 73.827 23.6884C72.9469 24.0089 72.1734 24.4364 71.4533 24.9439C70.8132 25.3981 70.3064 25.9056 69.9064 26.4399V14.8994H65.8524V44.3651H69.9064V41.7739C70.2531 42.1746 70.6798 42.5486 71.1599 42.9226C71.9067 43.4836 72.7602 43.911 73.6937 44.2583C74.6272 44.6056 75.614 44.7658 76.6275 44.7658C78.4678 44.7658 80.1214 44.3117 81.5617 43.3767C83.0286 42.4417 84.1754 41.1594 85.0022 39.5566C85.8557 37.927 86.2558 36.0837 86.2558 34C86.2558 31.9163 85.829 30.0731 84.9756 28.4435C84.1488 26.8139 83.0019 25.5316 81.5083 24.5967ZM81.5883 37.5797C81.0821 38.6033 80.3193 39.4777 79.3746 40.1176C78.4411 40.732 77.3476 41.0526 76.0941 41.0526C74.8405 41.0526 73.7737 40.7587 72.8135 40.1443C71.88 39.5299 71.1332 38.7017 70.5731 37.6332C70.0397 36.5646 69.773 35.3625 69.773 33.9733C69.773 32.5842 70.0397 31.382 70.5731 30.3402C71.1066 29.2983 71.8534 28.4702 72.8135 27.8558C73.747 27.2414 74.8405 26.9475 76.0941 26.9475C77.3476 26.9475 78.4145 27.2414 79.3746 27.8558C80.3081 28.4702 81.0549 29.2983 81.5883 30.3669C82.1217 31.4355 82.3885 32.6376 82.3885 33.9733C82.3885 35.309 82.1217 36.5112 81.5883 37.5797Z" fill="#63337B"/>
</svg>
