<svg width="116" height="60" viewBox="0 0 116 60" fill="none" xmlns="http://www.w3.org/2000/svg">
<path d="M39.3201 11.5663H11.1146C8.95539 11.5663 7.20497 13.3225 7.20497 15.489V43.7882C7.20497 45.9546 8.95539 47.7109 11.1146 47.7109H39.3201C41.4794 47.7109 43.2298 45.9546 43.2298 43.7882V15.489C43.2298 13.3225 41.4794 11.5663 39.3201 11.5663Z" fill="#FFCE0C"/>
<path d="M30.794 16.6265H27.6491L30.441 21.84L24.5365 16.6265H21.3888L24.1825 23.4579L18.2772 16.6265H15.1304L17.8773 25.4433L15.1304 42.6506H18.2772L24.1817 24.2006L21.3888 42.6506H24.5356L30.441 22.5839L27.6482 42.6506H30.794L36.7453 20.6082L30.794 16.6265Z" fill="black"/>
<path fill-rule="evenodd" clip-rule="evenodd" d="M84.118 30.8462V39.5823H87.4503V31.4767C87.4503 27.6941 92.1335 27.6941 92.1335 27.6941V24.0916L89.7919 24.4518C86.9099 25.1723 84.118 26.7034 84.118 30.8462ZM58.7205 24.0015C59.9814 24.0015 61.6025 24.8121 62.5031 26.163C63.0064 25.4919 63.6591 24.9472 64.4095 24.572C65.1598 24.1968 65.9872 24.0015 66.8261 24.0015C69.2578 24.0015 72.2298 25.5326 72.2298 30.3059V39.5823H68.8074V30.3059C68.8074 28.6848 67.7267 27.604 66.1056 27.604C64.5745 27.604 63.4037 28.6848 63.4037 30.3059V39.5823H60.1615V30.3059C60.1615 28.6848 59.0807 27.604 57.4596 27.604C55.8385 27.604 54.7578 28.6848 54.7578 30.3059V39.5823H51.1553V24.4518H54.7578V25.9829C55.6584 24.722 57.1894 24.0015 58.7205 24.0015ZM79.9751 24.5419V39.4922H76.5528V24.632L79.9751 24.5419ZM78.1739 22.2003C79.2547 22.2003 80.1553 21.2997 80.1553 20.1289C80.1553 19.1382 79.2547 18.2375 78.1739 18.2375C77.0932 18.2375 76.1925 19.1382 76.1925 20.309C76.1925 21.3897 77.0932 22.2903 78.1739 22.2903V22.2003ZM101.32 23.9115C97.177 23.9115 93.7547 27.4239 93.7547 31.8369C93.7547 36.25 97.177 39.7624 101.32 39.7624C105.463 39.7624 108.795 36.1599 108.795 31.8369C108.795 27.4239 105.463 23.9115 101.32 23.9115ZM101.32 36.1599C98.8882 36.25 97.087 34.2686 97.087 31.7469C97.087 29.3152 98.8882 27.2438 101.32 27.2438C103.661 27.2438 105.553 29.3152 105.553 31.7469C105.553 34.2686 103.661 36.25 101.32 36.25V36.1599Z" fill="white"/>
</svg>
