<svg width="210" height="60" viewBox="0 0 210 60" fill="none" xmlns="http://www.w3.org/2000/svg">
<path d="M85.322 44.08H91.1416L80.5368 13.9927H73.7912L63.1865 44.08H69.0059L71.4911 36.6699H82.8213L85.322 44.08ZM72.9731 32.2793L77.0482 20.1705H77.2797L81.3548 32.2793H72.9731ZM96.8992 30.8621V44.08H91.5737V21.5262H96.6675V25.3623H96.9301C97.455 24.0989 98.2884 23.0976 99.4306 22.358C100.573 21.6186 101.993 21.249 103.676 21.249C105.235 21.249 106.593 21.5879 107.766 22.2503C108.924 22.9127 109.835 23.8833 110.468 25.1465C111.116 26.4099 111.425 27.935 111.409 29.7374V44.08H106.084V30.5386C106.084 29.0287 105.698 27.858 104.911 26.9953C104.123 26.148 103.058 25.7166 101.684 25.7166C100.758 25.7166 99.9247 25.9168 99.1992 26.3327C98.4736 26.7334 97.9179 27.3187 97.5012 28.089C97.1152 28.8438 96.8992 29.7681 96.8992 30.8621ZM123.156 53C121.242 53 119.606 52.7381 118.232 52.2297C116.858 51.7214 115.762 51.0281 114.929 50.1654C114.095 49.3027 113.509 48.3475 113.2 47.2999L118.001 46.1446C118.217 46.5912 118.525 47.0225 118.942 47.4539C119.359 47.8853 119.915 48.255 120.609 48.5478C121.304 48.8404 122.199 48.9792 123.264 48.9792C124.777 48.9792 126.027 48.6094 127.015 47.8853C128.003 47.1613 128.497 45.9597 128.497 44.2958V40.0283H128.235C127.957 40.583 127.555 41.1377 127.031 41.7231C126.506 42.3085 125.811 42.7859 124.962 43.1712C124.098 43.5564 123.033 43.7565 121.736 43.7565C120.007 43.7565 118.433 43.3406 117.013 42.5242C115.608 41.7076 114.481 40.4751 113.663 38.8576C112.829 37.2246 112.412 35.1911 112.412 32.7261C112.412 30.2613 112.829 28.1506 113.663 26.4406C114.496 24.7306 115.608 23.4365 117.028 22.5431C118.448 21.6495 120.023 21.2181 121.752 21.2181C123.079 21.2181 124.175 21.4337 125.024 21.8805C125.888 22.3273 126.568 22.8664 127.077 23.4828C127.586 24.0989 127.972 24.6845 128.235 25.239H128.528V21.5109H133.776V44.4344C133.776 46.3601 133.313 47.9623 132.387 49.2256C131.461 50.4888 130.21 51.4286 128.605 52.0603C127 52.692 125.178 53 123.156 53ZM123.202 39.5817C124.329 39.5817 125.286 39.3044 126.089 38.7651C126.876 38.2106 127.494 37.4249 127.895 36.408C128.312 35.3758 128.513 34.1435 128.513 32.7106C128.513 31.278 128.312 30.0455 127.895 28.9826C127.494 27.9196 126.892 27.0877 126.105 26.4869C125.317 25.9013 124.345 25.5933 123.202 25.5933C122.06 25.5933 121.026 25.9013 120.223 26.5178C119.436 27.1338 118.834 27.9811 118.433 29.0442C118.031 30.1225 117.831 31.3396 117.831 32.6954C117.831 34.051 118.031 35.2834 118.448 36.3157C118.849 37.3479 119.451 38.1489 120.254 38.719C121.042 39.2889 122.029 39.5817 123.202 39.5817ZM149.907 34.5903V21.5262H155.233V44.08H150.061V40.0746H149.83C149.321 41.3378 148.487 42.37 147.314 43.1712C146.156 43.9723 144.72 44.3728 143.022 44.3728C141.541 44.3728 140.229 44.0493 139.102 43.3868C137.975 42.7244 137.08 41.7692 136.447 40.4906C135.814 39.2274 135.49 37.6868 135.49 35.8844V21.5262H140.831V35.0678C140.831 36.5004 141.217 37.6405 142.004 38.4725C142.791 39.3198 143.825 39.7357 145.091 39.7357C145.878 39.7357 146.635 39.5508 147.376 39.1656C148.116 38.7806 148.718 38.2106 149.197 37.4556C149.676 36.6853 149.907 35.7302 149.907 34.5903ZM162.302 13.9929V44.08H156.977V13.9927H162.302V13.9929ZM170.762 44.5268C169.326 44.5268 168.045 44.2649 166.902 43.7565C165.76 43.2482 164.849 42.4779 164.201 41.4766C163.537 40.4751 163.213 39.2274 163.213 37.7484C163.213 36.4697 163.445 35.4221 163.923 34.5903C164.402 33.7583 165.035 33.0959 165.853 32.5875C166.671 32.0946 167.582 31.7094 168.616 31.4474C169.635 31.1855 170.7 31.0006 171.796 30.8775C173.123 30.7387 174.188 30.6156 175.022 30.5077C175.84 30.3998 176.442 30.2149 176.828 29.9839C177.198 29.7374 177.399 29.3677 177.399 28.8593V28.7668C177.399 27.6577 177.075 26.8104 176.411 26.1941C175.747 25.5933 174.806 25.2851 173.571 25.2851C172.259 25.2851 171.24 25.5624 170.468 26.1324C169.712 26.7025 169.202 27.3649 168.924 28.1506L163.954 27.4419C164.34 26.0708 164.988 24.9309 165.899 23.991C166.794 23.0667 167.906 22.3736 169.202 21.9114C170.514 21.4492 171.95 21.2181 173.525 21.2181C174.62 21.2181 175.701 21.3413 176.782 21.6032C177.862 21.8651 178.85 22.281 179.745 22.8666C180.641 23.4519 181.351 24.2377 181.906 25.239C182.447 26.2403 182.724 27.4882 182.724 28.9826V44.08H177.6V40.9835H177.43C177.106 41.6152 176.658 42.2006 176.072 42.7398C175.485 43.2791 174.759 43.7259 173.88 44.0493C172.969 44.3728 171.95 44.5268 170.762 44.5268ZM172.151 40.6291C173.216 40.6291 174.142 40.4136 174.929 39.9976C175.716 39.5663 176.318 39.0116 176.751 38.3029C177.183 37.5944 177.384 36.8241 177.384 35.9921V33.3269C177.214 33.4657 176.936 33.5888 176.535 33.7121C176.133 33.8353 175.701 33.9277 175.207 34.0202C174.713 34.1126 174.235 34.1896 173.756 34.2512C173.277 34.313 172.861 34.3745 172.506 34.4208C171.719 34.5285 170.993 34.698 170.376 34.9445C169.743 35.1911 169.249 35.53 168.894 35.9614C168.523 36.3927 168.353 36.9627 168.353 37.6405C168.353 38.6265 168.708 39.3659 169.434 39.8589C170.129 40.3827 171.039 40.6291 172.151 40.6291ZM184.345 44.08V21.5262H189.516V25.2853H189.748C190.165 23.9758 190.875 22.9743 191.878 22.2656C192.882 21.557 194.039 21.2027 195.336 21.2027C195.629 21.2027 195.969 21.2181 196.324 21.2334C196.694 21.2643 197.003 21.2951 197.25 21.3413V26.225C197.019 26.1478 196.663 26.0708 196.185 26.0092C195.719 25.9488 195.25 25.918 194.78 25.917C193.808 25.917 192.943 26.1326 192.171 26.5485C191.4 26.9644 190.798 27.5343 190.35 28.2739C189.902 29.0133 189.686 29.8606 189.686 30.8158V44.08H184.345ZM53.8939 15.3792L52.3811 39.0886L37.9175 8L53.8939 15.3792ZM43.8758 46.0367L32.947 52.2606L22.018 46.0367L24.2408 40.66H41.653L43.8758 46.0367ZM32.947 19.8007L38.6737 33.6967H27.2201L32.947 19.8007ZM13.4973 39.0886L12 15.3792L27.9764 8L13.4973 39.0886Z" fill="url(#paint0_linear_9_2)"/>
<path d="M85.322 44.08H91.1416L80.5368 13.9927H73.7912L63.1865 44.08H69.0059L71.4911 36.6699H82.8213L85.322 44.08ZM72.9731 32.2793L77.0482 20.1705H77.2797L81.3548 32.2793H72.9731ZM96.8992 30.8621V44.08H91.5737V21.5262H96.6675V25.3623H96.9301C97.455 24.0989 98.2884 23.0976 99.4306 22.358C100.573 21.6186 101.993 21.249 103.676 21.249C105.235 21.249 106.593 21.5879 107.766 22.2503C108.924 22.9127 109.835 23.8833 110.468 25.1465C111.116 26.4099 111.425 27.935 111.409 29.7374V44.08H106.084V30.5386C106.084 29.0287 105.698 27.858 104.911 26.9953C104.123 26.148 103.058 25.7166 101.684 25.7166C100.758 25.7166 99.9247 25.9168 99.1992 26.3327C98.4736 26.7334 97.9179 27.3187 97.5012 28.089C97.1152 28.8438 96.8992 29.7681 96.8992 30.8621ZM123.156 53C121.242 53 119.606 52.7381 118.232 52.2297C116.858 51.7214 115.762 51.0281 114.929 50.1654C114.095 49.3027 113.509 48.3475 113.2 47.2999L118.001 46.1446C118.217 46.5912 118.525 47.0225 118.942 47.4539C119.359 47.8853 119.915 48.255 120.609 48.5478C121.304 48.8404 122.199 48.9792 123.264 48.9792C124.777 48.9792 126.027 48.6094 127.015 47.8853C128.003 47.1613 128.497 45.9597 128.497 44.2958V40.0283H128.235C127.957 40.583 127.555 41.1377 127.031 41.7231C126.506 42.3085 125.811 42.7859 124.962 43.1712C124.098 43.5564 123.033 43.7565 121.736 43.7565C120.007 43.7565 118.433 43.3406 117.013 42.5242C115.608 41.7076 114.481 40.4751 113.663 38.8576C112.829 37.2246 112.412 35.1911 112.412 32.7261C112.412 30.2613 112.829 28.1506 113.663 26.4406C114.496 24.7306 115.608 23.4365 117.028 22.5431C118.448 21.6495 120.023 21.2181 121.752 21.2181C123.079 21.2181 124.175 21.4337 125.024 21.8805C125.888 22.3273 126.568 22.8664 127.077 23.4828C127.586 24.0989 127.972 24.6845 128.235 25.239H128.528V21.5109H133.776V44.4344C133.776 46.3601 133.313 47.9623 132.387 49.2256C131.461 50.4888 130.21 51.4286 128.605 52.0603C127 52.692 125.178 53 123.156 53ZM123.202 39.5817C124.329 39.5817 125.286 39.3044 126.089 38.7651C126.876 38.2106 127.494 37.4249 127.895 36.408C128.312 35.3758 128.513 34.1435 128.513 32.7106C128.513 31.278 128.312 30.0455 127.895 28.9826C127.494 27.9196 126.892 27.0877 126.105 26.4869C125.317 25.9013 124.345 25.5933 123.202 25.5933C122.06 25.5933 121.026 25.9013 120.223 26.5178C119.436 27.1338 118.834 27.9811 118.433 29.0442C118.031 30.1225 117.831 31.3396 117.831 32.6954C117.831 34.051 118.031 35.2834 118.448 36.3157C118.849 37.3479 119.451 38.1489 120.254 38.719C121.042 39.2889 122.029 39.5817 123.202 39.5817ZM149.907 34.5903V21.5262H155.233V44.08H150.061V40.0746H149.83C149.321 41.3378 148.487 42.37 147.314 43.1712C146.156 43.9723 144.72 44.3728 143.022 44.3728C141.541 44.3728 140.229 44.0493 139.102 43.3868C137.975 42.7244 137.08 41.7692 136.447 40.4906C135.814 39.2274 135.49 37.6868 135.49 35.8844V21.5262H140.831V35.0678C140.831 36.5004 141.217 37.6405 142.004 38.4725C142.791 39.3198 143.825 39.7357 145.091 39.7357C145.878 39.7357 146.635 39.5508 147.376 39.1656C148.116 38.7806 148.718 38.2106 149.197 37.4556C149.676 36.6853 149.907 35.7302 149.907 34.5903ZM162.302 13.9929V44.08H156.977V13.9927H162.302V13.9929ZM170.762 44.5268C169.326 44.5268 168.045 44.2649 166.902 43.7565C165.76 43.2482 164.849 42.4779 164.201 41.4766C163.537 40.4751 163.213 39.2274 163.213 37.7484C163.213 36.4697 163.445 35.4221 163.923 34.5903C164.402 33.7583 165.035 33.0959 165.853 32.5875C166.671 32.0946 167.582 31.7094 168.616 31.4474C169.635 31.1855 170.7 31.0006 171.796 30.8775C173.123 30.7387 174.188 30.6156 175.022 30.5077C175.84 30.3998 176.442 30.2149 176.828 29.9839C177.198 29.7374 177.399 29.3677 177.399 28.8593V28.7668C177.399 27.6577 177.075 26.8104 176.411 26.1941C175.747 25.5933 174.806 25.2851 173.571 25.2851C172.259 25.2851 171.24 25.5624 170.468 26.1324C169.712 26.7025 169.202 27.3649 168.924 28.1506L163.954 27.4419C164.34 26.0708 164.988 24.9309 165.899 23.991C166.794 23.0667 167.906 22.3736 169.202 21.9114C170.514 21.4492 171.95 21.2181 173.525 21.2181C174.62 21.2181 175.701 21.3413 176.782 21.6032C177.862 21.8651 178.85 22.281 179.745 22.8666C180.641 23.4519 181.351 24.2377 181.906 25.239C182.447 26.2403 182.724 27.4882 182.724 28.9826V44.08H177.6V40.9835H177.43C177.106 41.6152 176.658 42.2006 176.072 42.7398C175.485 43.2791 174.759 43.7259 173.88 44.0493C172.969 44.3728 171.95 44.5268 170.762 44.5268ZM172.151 40.6291C173.216 40.6291 174.142 40.4136 174.929 39.9976C175.716 39.5663 176.318 39.0116 176.751 38.3029C177.183 37.5944 177.384 36.8241 177.384 35.9921V33.3269C177.214 33.4657 176.936 33.5888 176.535 33.7121C176.133 33.8353 175.701 33.9277 175.207 34.0202C174.713 34.1126 174.235 34.1896 173.756 34.2512C173.277 34.313 172.861 34.3745 172.506 34.4208C171.719 34.5285 170.993 34.698 170.376 34.9445C169.743 35.1911 169.249 35.53 168.894 35.9614C168.523 36.3927 168.353 36.9627 168.353 37.6405C168.353 38.6265 168.708 39.3659 169.434 39.8589C170.129 40.3827 171.039 40.6291 172.151 40.6291ZM184.345 44.08V21.5262H189.516V25.2853H189.748C190.165 23.9758 190.875 22.9743 191.878 22.2656C192.882 21.557 194.039 21.2027 195.336 21.2027C195.629 21.2027 195.969 21.2181 196.324 21.2334C196.694 21.2643 197.003 21.2951 197.25 21.3413V26.225C197.019 26.1478 196.663 26.0708 196.185 26.0092C195.719 25.9488 195.25 25.918 194.78 25.917C193.808 25.917 192.943 26.1326 192.171 26.5485C191.4 26.9644 190.798 27.5343 190.35 28.2739C189.902 29.0133 189.686 29.8606 189.686 30.8158V44.08H184.345ZM53.8939 15.3792L52.3811 39.0886L37.9175 8L53.8939 15.3792ZM43.8758 46.0367L32.947 52.2606L22.018 46.0367L24.2408 40.66H41.653L43.8758 46.0367ZM32.947 19.8007L38.6737 33.6967H27.2201L32.947 19.8007ZM13.4973 39.0886L12 15.3792L27.9764 8L13.4973 39.0886Z" fill="url(#paint1_radial_9_2)"/>
<defs>
<linearGradient id="paint0_linear_9_2" x1="12" y1="44.1506" x2="197.25" y2="44.1506" gradientUnits="userSpaceOnUse">
<stop stop-color="#F0070C"/>
<stop offset="0.526" stop-color="#CC26D5"/>
<stop offset="1" stop-color="#7702FF"/>
</linearGradient>
<radialGradient id="paint1_radial_9_2" cx="0" cy="0" r="1" gradientUnits="userSpaceOnUse" gradientTransform="translate(69.6312 -3.57958) rotate(118.168) scale(38.7643 38.8056)">
<stop stop-color="#FF41F8"/>
<stop offset="0.707" stop-color="#FF41F8" stop-opacity="0.5"/>
<stop offset="1" stop-color="#FF41F8" stop-opacity="0"/>
</radialGradient>
</defs>
</svg>
