<svg width="126" height="60" viewBox="0 0 126 60" fill="none" xmlns="http://www.w3.org/2000/svg">
<path fill-rule="evenodd" clip-rule="evenodd" d="M79.8604 41.4827C79.3416 41.8623 78.9725 42.1623 78.5748 42.4171C76.924 43.4813 75.29 44.5741 73.5988 45.5705C72.5278 46.202 71.32 46.1479 70.1771 45.7505C69.0697 45.3669 67.9672 44.9341 66.9326 44.3892C65.2739 43.5148 64.7483 41.8574 64.2335 40.2C63.3702 37.4233 64.5386 35.0469 65.645 32.6518C65.8498 32.2131 66.1294 31.8099 66.3577 31.38C66.6836 30.7653 66.5005 30.4436 65.7957 30.4869C65.399 30.5105 64.9767 30.6197 64.6213 30.7997C61.5254 32.3725 58.8312 34.441 56.7729 37.2699C55.3573 39.2184 54.4872 41.4089 53.9074 43.7371C53.555 45.1525 52.5027 45.9059 51.3864 45.659C49.8153 45.3108 48.6981 42.9787 49.4176 41.5476C49.5318 41.3194 49.6332 41.0764 49.7946 40.8827C51.5852 38.7315 52.2133 36.0708 53.0293 33.4968C53.5067 31.9889 53.9763 30.4761 54.3848 28.9486C54.5836 28.204 54.8278 27.4446 54.434 26.644C54.1918 26.1472 54.5935 25.6859 54.9971 25.6407C55.9115 25.5374 56.9146 25.4007 57.7553 25.6702C58.6786 25.9672 58.7554 27.0708 58.9109 27.9374C59.0035 28.4518 58.9287 28.9968 58.9287 29.704C59.2998 29.5338 59.5655 29.4345 59.8107 29.2948C61.2075 28.5 62.5649 27.6305 64.0021 26.9184C65.3724 26.2397 66.7741 26.6076 68.0617 27.242C68.7114 27.5627 69.047 27.5263 69.5501 26.9636C70.6673 25.7115 71.8299 24.4781 73.1125 23.401C74.1766 22.5089 75.5626 22.2443 76.9486 22.3436C77.8572 22.4076 78.7697 22.5758 79.6527 22.8C80.6843 23.0646 81.337 23.9912 81.4325 25.0367C81.6234 27.1633 80.7739 28.9741 79.5582 30.5735C76.6661 34.381 73.3891 37.8079 69.241 40.2954C68.6681 40.6397 68.6238 41.0499 68.8886 41.583C69.2941 42.3935 70.2726 42.7417 71.1703 42.4653C73.7061 41.6863 75.6689 40.0013 77.6948 38.4079C78.7766 37.5571 79.9313 36.78 80.9029 35.8181C81.4492 35.2781 81.711 34.441 82.0644 33.7181C83.4101 30.9679 84.6642 28.1695 86.0935 25.4636C87.5946 22.6171 89.275 19.8659 90.8421 17.0538C91.2742 16.2768 91.5902 15.4338 91.9426 14.6145C92.4575 13.4233 93.2637 12.6876 94.6536 12.8125C94.9076 12.8351 95.1665 12.8076 95.4234 12.8086C97.2307 12.8115 98.216 14.3686 97.3281 15.96C96.5328 17.3843 95.6094 18.7367 94.7127 20.102C92.0923 24.0935 89.3882 28.0387 87.3476 32.3705C86.3799 34.4223 85.5009 36.5272 84.7606 38.6695C84.4023 39.7053 84.4033 40.8797 84.3403 41.9971C84.3009 42.7279 84.8138 42.9709 85.3936 42.484C86.3494 41.6804 87.2117 40.7686 88.1488 39.9433C88.9491 39.239 89.8489 38.6459 90.6078 37.9043C91.0006 37.5197 91.2565 36.9492 91.4495 36.4181C92.8542 32.5682 94.6546 28.9082 96.6292 25.3259C98.0477 22.7538 99.5184 20.2082 100.933 17.6322C101.602 16.4125 102.158 15.1299 102.84 13.9151C103.263 13.1607 103.935 12.7161 104.873 12.8145C105.179 12.8469 105.492 12.84 105.797 12.8056C107.884 12.5666 108.537 14.6695 107.786 15.9659C107.159 17.0459 106.478 18.0945 105.795 19.139C102.757 23.7767 99.5863 28.3397 97.2957 33.4122C96.395 35.4049 95.6626 37.4823 94.9765 39.5597C94.7284 40.3122 94.7983 41.1807 94.7993 41.9971C94.7993 42.7348 95.2629 42.9551 95.8496 42.4623C96.7867 41.6754 97.649 40.802 98.5596 39.9797L100.742 38.0784C100.922 37.9171 101.133 37.6958 101.163 37.4784C101.734 33.4938 103.688 30.1889 106.22 27.1741C107.039 26.1974 107.859 25.203 108.799 24.3492C110.693 22.6318 113.15 23.0322 114.574 24.3886C114.976 24.7712 115.201 25.3633 115.436 25.8905C115.924 26.9774 116.278 27.2272 117.488 27.2233C118.92 27.2184 120.355 27.1663 121.782 27.244C122.342 27.2745 122.932 27.5233 123.429 27.8095C124.056 28.1725 123.999 28.8128 123.354 29.1069C121.533 29.9371 119.638 30.5194 117.62 30.5676C116.949 30.5843 116.658 30.8105 116.485 31.5049C115.387 35.9086 113.855 40.1204 110.526 43.4036C109.829 44.0912 109.027 44.7413 108.155 45.1643C106.507 45.963 105.07 45.1368 103.73 44.2318C103.165 43.8482 102.622 43.3938 102.176 42.8784C101.786 42.4309 101.569 42.4741 101.214 42.8725C100.193 44.0243 99.1118 45.1151 97.6599 45.7328C96.7838 46.1046 95.9313 46.3299 94.9253 46.0299C93.4153 45.5774 92.0489 44.9627 91.0715 43.6889C90.7072 43.2118 90.4602 43.261 90.032 43.6348C89.2277 44.3361 88.4117 45.0561 87.4962 45.5902C85.6249 46.681 83.8284 46.0633 82.1432 45.0531C80.8674 44.2928 79.9657 43.2148 79.8604 41.4827ZM104.982 39.3915C105.061 39.7486 105.105 40.2738 105.301 40.7341C105.47 41.1276 105.771 41.6804 106.091 41.7384C106.395 41.7945 106.91 41.3745 107.14 41.0341C108.193 39.4702 109.209 37.8777 110.184 36.2636C111.477 34.1302 112.13 31.7774 112.362 29.3105C112.404 28.8738 112.309 28.3761 112.127 27.9748C111.657 26.9489 111.18 26.881 110.558 27.8066C109.292 29.6853 108.038 31.5777 106.906 33.541C105.894 35.2948 105.229 37.203 104.982 39.3915ZM76.9732 26.4266C77.0254 25.86 76.7665 25.6849 76.2793 25.8148C76.1375 25.8522 76.0056 25.9535 75.8894 26.0489C72.957 28.4538 70.691 31.3682 69.1829 34.8541C69.116 35.0086 69.2055 35.2328 69.2223 35.4246C69.4063 35.3833 69.6446 35.403 69.7686 35.2928C70.4399 34.7017 71.0857 34.084 71.7334 33.4692C73.7445 31.56 75.539 29.4846 76.7606 26.9666C76.8492 26.7827 76.9102 26.5869 76.9732 26.4266ZM46.0058 22.441C45.5047 22.3879 45.1415 22.3397 44.7763 22.3131C43.7092 22.2345 42.6323 22.2236 41.5761 22.0712C40.7217 21.9472 40.3555 21.3777 40.3555 20.4866L40.3624 20.0263C40.4067 18.4613 40.9796 18.2272 42.5349 18.4515C44.1325 18.6817 45.802 18.6138 47.4213 18.4633C49.5515 18.2666 51.66 17.8269 53.7843 17.5584C55.0748 17.3961 56.3791 17.3361 57.6775 17.2692C59.3775 17.1807 60.7399 17.9961 61.933 19.0672C62.2303 19.3328 62.3415 19.9977 62.2706 20.4374C62.1338 21.2961 60.1375 22.1872 59.3303 21.3817C58.7446 20.7984 57.9748 20.6056 57.1282 20.7059C55.5296 20.8967 53.9251 21.0502 52.3245 21.2331C51.917 21.2794 51.7614 21.4918 51.6167 21.9433C51.3411 22.8049 50.842 23.5997 50.4069 24.4063C48.5287 27.8981 46.8661 31.4784 45.8404 35.3204C45.2084 37.683 44.6395 40.0613 44.0853 42.4436C43.9662 42.9571 43.9898 43.5168 44.0173 44.0509C44.1246 46.0869 43.0113 46.3928 41.3526 45.8548C40.8693 45.6994 40.4185 45.4387 39.9539 45.2253C39.4174 44.9754 39.063 44.5486 39.1299 43.9672C39.2874 42.604 39.4065 41.221 39.7471 39.9C40.3545 37.5305 41.0485 35.1787 41.8281 32.8604C42.5496 30.7082 43.409 28.6004 44.2506 26.4886C44.7665 25.1912 45.36 23.9233 46.0058 22.441Z" fill="#23719F"/>
<path d="M34.4531 18.6886C34.4531 16.501 32.6773 14.7266 30.4871 14.7266H5.9348C3.74456 14.7266 1.96875 16.501 1.96875 18.6886V43.2227C1.96875 45.4112 3.74456 47.1856 5.9348 47.1856H30.4861C32.6773 47.1856 34.4531 45.4112 34.4531 43.2237V18.6886ZM17.7188 39.3197C17.7188 40.2532 15.6378 41.284 14.6121 41.284H7.51669C6.49195 41.284 5.90625 40.2532 5.90625 39.3197V19.3938C5.90625 18.4604 6.49195 18.661 7.51669 18.661H14.6121C15.6378 18.661 17.7188 18.4604 17.7188 19.3938V39.3197ZM31.5 22.1204V30.4643C31.5 31.4588 30.238 32.4315 29.2409 32.4315H22.0845C21.0873 32.4315 20.6719 31.4588 20.6719 30.4633V19.445C20.6719 18.4496 21.0873 18.661 22.0854 18.661H29.2418C30.238 18.661 31.5 18.4496 31.5 19.445V22.1204Z" fill="#23719F"/>
</svg>
