<svg width="141" height="50" viewBox="0 0 141 50" fill="none" xmlns="http://www.w3.org/2000/svg">
<path d="M44.5736 0H5.42636C2.42946 0 0 2.42946 0 5.42636V44.5736C0 47.5705 2.42946 50 5.42636 50H44.5736C47.5705 50 50 47.5705 50 44.5736V5.42636C50 2.42946 47.5705 0 44.5736 0Z" fill="#FFCE0C"/>
<path d="M32.74 7H28.375L32.25 14.212L24.055 7H19.6862L23.5637 16.45L15.3675 7H11L14.8125 19.1965L11 43H15.3675L23.5625 17.4775L19.6862 43H24.0537L32.25 15.241L28.3738 43H32.74L41 12.508L32.74 7Z" fill="black"/>
<path fill-rule="evenodd" clip-rule="evenodd" d="M106.75 27.5732V39.749H111.375V28.4519C111.375 23.1799 117.875 23.1799 117.875 23.1799V18.159L114.625 18.6611C110.625 19.6653 106.75 21.7992 106.75 27.5732ZM71.5 18.0335C73.25 18.0335 75.5 19.1632 76.75 21.046C77.4486 20.1107 78.3545 19.3515 79.3959 18.8286C80.4373 18.3057 81.5857 18.0335 82.75 18.0335C86.125 18.0335 90.25 20.1674 90.25 26.8201V39.749H85.5V26.8201C85.5 24.5607 84 23.0544 81.75 23.0544C79.625 23.0544 78 24.5607 78 26.8201V39.749H73.5V26.8201C73.5 24.5607 72 23.0544 69.75 23.0544C67.5 23.0544 66 24.5607 66 26.8201V39.749H61V18.6611H66V20.795C67.25 19.0377 69.375 18.0335 71.5 18.0335ZM101 18.7866V39.6234H96.25V18.9121L101 18.7866ZM98.5 15.523C100 15.523 101.25 14.2678 101.25 12.636C101.25 11.2552 100 10 98.5 10C97 10 95.75 11.2552 95.75 12.887C95.75 14.3933 97 15.6485 98.5 15.6485V15.523ZM130.625 17.908C124.875 17.908 120.125 22.8033 120.125 28.954C120.125 35.1046 124.875 40 130.625 40C136.375 40 141 34.9791 141 28.954C141 22.8033 136.375 17.908 130.625 17.908ZM130.625 34.9791C127.25 35.1046 124.75 32.3431 124.75 28.8285C124.75 25.4393 127.25 22.5523 130.625 22.5523C133.875 22.5523 136.5 25.4393 136.5 28.8285C136.5 32.3431 133.875 35.1046 130.625 35.1046V34.9791Z" fill="white"/>
</svg>
