<svg width="77" height="100" viewBox="0 0 77 100" fill="none" xmlns="http://www.w3.org/2000/svg">
<g clip-path="url(#clip0_1_16)">
<path fill-rule="evenodd" clip-rule="evenodd" d="M37.8039 98.967C33.3563 92.4001 27.3238 92.5189 17.4446 92.5262C12.8927 92.5294 8.57927 91.8968 5.36662 89.8138C2.07984 87.6829 -0.0156905 84.1027 0.00333321 78.262H0V3.40347L1.36247 4.46846C5.86766 7.99004 11.069 10.4768 16.9408 10.3898C24.68 10.2752 33.0067 6.88543 37.8402 0.831528L38.5 0.00512695L39.1597 0.831528C43.9933 6.88543 52.32 10.2752 60.0592 10.3898C65.9309 10.4768 71.1323 7.99004 75.6375 4.46846L77 3.40347V78.262H76.9967C77.0156 84.1027 74.9201 87.6829 71.6334 89.8138C68.2648 91.9978 63.8856 92.5295 59.1972 92.5259C49.4188 92.518 43.567 92.5133 39.1961 98.967L38.5 99.9948L37.8039 98.967Z" fill="black"/>
<path fill-rule="evenodd" clip-rule="evenodd" d="M38.5 98.4949C33.8237 91.5905 27.7174 91.6771 17.4446 91.6843C8.62874 91.6906 0.808631 89.2804 0.844483 78.262V5.13187C5.43585 8.7208 10.7948 11.3227 16.9506 11.2315C25.2146 11.1091 33.654 7.42568 38.5 1.35632C43.346 7.42568 51.7853 11.1091 60.0492 11.2315C66.2051 11.3227 71.564 8.7208 76.1554 5.13187V78.262C76.1913 89.2804 68.3712 91.6906 59.5553 91.6843C49.2826 91.6771 43.1762 91.5905 38.5 98.4949Z" fill="#FAB61B"/>
<path fill-rule="evenodd" clip-rule="evenodd" d="M38.5 91.4665C34.502 86.5716 27.643 86.1169 21.0534 86.1901C12.3451 86.2869 5.31413 85.1453 5.45421 74.0848V11.0921C9.58803 13.948 13.8093 14.8338 18.6124 14.6266C25.2239 14.3414 32.3717 12.181 38.5 6.49182C44.6283 12.181 51.7762 14.3414 58.3876 14.6266C63.1908 14.8338 67.4119 13.948 71.5458 11.0921V74.0848C71.6859 85.1453 64.655 86.2869 55.9466 86.1901C49.357 86.1169 42.4979 86.5716 38.5 91.4665Z" fill="#13AAE3"/>
<path d="M71.5459 25.2147H5.45422V43.051H71.5459V25.2147Z" fill="#D10404"/>
<path d="M49.5153 25.2147H27.4847V43.051H49.5153V25.2147Z" fill="white"/>
<path d="M16.8398 35.9044V33.238H22.4703V38.687C21.3919 39.4864 20.4398 40.0322 19.6139 40.3215C18.7853 40.6108 17.803 40.7539 16.667 40.7539C15.2676 40.7539 14.1262 40.4944 13.2454 39.9755C12.3647 39.4595 11.6814 38.687 11.1958 37.6611C10.7102 36.6381 10.4686 35.46 10.4686 34.1329C10.4686 32.734 10.7348 31.5202 11.2644 30.4853C11.7939 29.4533 12.5704 28.6689 13.5939 28.1321C14.3924 27.7175 15.4679 27.5117 16.8179 27.5117C18.1185 27.5117 19.0925 27.6399 19.7374 27.8964C20.3849 28.1529 20.92 28.5496 21.3453 29.0894C21.7706 29.6293 22.0916 30.3122 22.3057 31.1384L18.799 31.8244C18.6535 31.3383 18.4093 30.9655 18.0636 30.709C17.7179 30.4495 17.2789 30.3212 16.7411 30.3212C15.9453 30.3212 15.3088 30.6224 14.8341 31.225C14.3594 31.8273 14.1234 32.7818 14.1234 34.0851C14.1234 35.469 14.3621 36.4591 14.8424 37.0526C15.3197 37.6462 15.9893 37.9444 16.8453 37.9444C17.2515 37.9444 17.6383 37.8818 18.0087 37.7535C18.3765 37.6253 18.799 37.4076 19.2764 37.1034V35.9044H16.8398Z" fill="white"/>
<path d="M40.5086 27.6191H44.1469V35.2513C44.1469 36.0059 44.0371 36.7217 43.8203 37.3927C43.6036 38.0668 43.2634 38.6543 42.7997 39.1584C42.3359 39.6624 41.8503 40.0143 41.3427 40.2201C40.6347 40.5035 39.7842 40.6466 38.7937 40.6466C38.2202 40.6466 37.5945 40.6019 36.9168 40.5154C36.2391 40.4289 35.6711 40.2559 35.2157 39.9964C34.7601 39.7369 34.3431 39.3701 33.9672 38.8929C33.5885 38.4157 33.3306 37.9236 33.1907 37.4166C32.9657 36.6023 32.8531 35.8806 32.8531 35.2513V27.6191H36.4915V35.4332C36.4915 36.1312 36.6699 36.6769 37.0239 37.0676C37.3805 37.4614 37.8744 37.6581 38.5055 37.6581C39.1284 37.6581 39.6195 37.4643 39.9762 37.0766C40.3302 36.6918 40.5086 36.1431 40.5086 35.4332V27.6191Z" fill="#D10404"/>
<path d="M55.5669 27.7266H65.313V30.4644H59.2217V32.5045H64.8686V35.1171H59.2217V37.6403H65.4942V40.5393H55.5669V27.7266Z" fill="white"/>
<path fill-rule="evenodd" clip-rule="evenodd" d="M38.4999 18.0451C41.6991 18.0451 44.3267 20.4913 44.6177 23.6162H32.3823C32.6732 20.4913 35.3009 18.0451 38.4999 18.0451ZM51.2746 20.604L45.0927 22.3411C45.2077 22.7518 45.2851 23.1782 45.3218 23.6162L51.7185 23.0746C51.6476 22.2259 51.4975 21.3998 51.2746 20.604ZM47.8256 17.5079L44.0654 20.2037C44.3164 20.5536 44.535 20.9281 44.7174 21.3229L48.9182 19.3833C48.6126 18.7217 48.2461 18.0941 47.8256 17.5079ZM46.0035 13.2467L42.3723 18.5441C42.7293 18.7896 43.0619 19.0679 43.3656 19.3749L47.928 14.8564C47.3395 14.2616 46.6952 13.7222 46.0035 13.2467ZM41.3749 13.0783L40.2156 17.5603C40.6386 17.6694 41.0456 17.8184 41.4327 18.0023L43.4144 13.8191C42.7656 13.5109 42.0836 13.2613 41.3749 13.0783ZM25.7254 20.604L31.9073 22.3411C31.7923 22.7518 31.7148 23.1781 31.6782 23.6162L25.2815 23.0746C25.3525 22.2259 25.5025 21.3998 25.7254 20.604ZM29.1744 17.5079L32.9346 20.2037C32.6837 20.5536 32.465 20.9281 32.2826 21.3229L28.0817 19.3833C28.3874 18.7217 28.7537 18.0941 29.1744 17.5079ZM30.9966 13.2467L34.6276 18.5441C34.2707 18.7896 33.9382 19.0679 33.6344 19.3749L29.072 14.8564C29.6605 14.2616 30.3049 13.7222 30.9966 13.2467ZM35.6252 13.0783L36.7843 17.5603C36.3613 17.6694 35.9543 17.8184 35.5672 18.0023L33.5856 13.8191C34.2344 13.5109 34.9163 13.2613 35.6252 13.0783ZM39.7542 10.9792L39.1473 17.374C38.7115 17.333 38.2886 17.333 37.8527 17.374L37.2458 10.9792C38.0895 10.9 38.9105 10.9 39.7542 10.9792Z" fill="#FAB61B"/>
<path fill-rule="evenodd" clip-rule="evenodd" d="M36.2523 52.0647C35.3132 51.1672 34.2416 50.6059 33.0377 50.381C32.6356 50.3037 32.6259 50.1515 33.0083 49.9239C33.9801 49.5175 35.8107 49.3209 38.5 49.3343C41.1891 49.3209 43.0198 49.5175 43.9916 49.9239C44.3741 50.1515 44.3643 50.3037 43.9623 50.381C42.7583 50.6059 41.6868 51.1672 40.7476 52.0647C40.6884 52.0759 36.3115 52.0759 36.2523 52.0647Z" fill="#FAB61B" stroke="#FAB61B" stroke-width="0.900994" stroke-miterlimit="22.9256"/>
<path fill-rule="evenodd" clip-rule="evenodd" d="M36.2522 52.0647C35.4664 51.3136 34.5877 50.7981 33.6163 50.518C36.7391 49.751 40.2609 49.751 43.3836 50.518C42.4122 50.7981 41.5335 51.3136 40.7476 52.0647C40.6884 52.0759 36.3115 52.0759 36.2522 52.0647Z" fill="black" stroke="#FAB61B" stroke-width="0.900994" stroke-miterlimit="22.9256"/>
<path fill-rule="evenodd" clip-rule="evenodd" d="M42.9048 48.9495C44.0286 48.3131 44.7683 47.4336 44.6205 46.3057C44.546 45.7378 44.203 45.1847 43.8032 44.7189C43.2022 44.0576 42.9737 43.252 43.118 42.3022C42.6691 42.6053 42.3977 43.1319 42.304 43.8822C41.4796 43.3165 41.2047 42.3722 41.4794 41.0494C40.9895 41.3412 40.3104 42.288 40.1199 42.7596C39.5483 41.088 38.5848 41.2936 38.8393 39.5045C36.3325 41.0439 36.8662 42.8771 35.0219 43.4363C34.9666 42.7333 34.5688 42.1698 33.8287 41.7456C34.1042 42.5705 33.8195 43.497 32.9748 44.5252C32.3154 45.545 32.187 46.459 32.5899 47.2674C32.9581 48.0064 33.7022 48.5396 34.5302 48.9495H42.9048Z" fill="#FAB61B"/>
<path fill-rule="evenodd" clip-rule="evenodd" d="M35.0167 48.9494C37.5999 48.9494 40.0235 48.9494 42.2873 48.9494C43.2698 47.9126 43.4155 46.7856 42.7244 45.5685C42.614 46.0722 42.3449 46.3725 41.917 46.4693C42.2386 45.2348 41.7992 44.2702 40.5987 43.5756C40.9008 44.264 40.8952 44.7909 40.5819 45.1564C40.3943 45.0865 40.194 44.9391 39.9811 44.7143C39.7401 44.2563 39.4787 43.8678 39.1968 43.5488C38.6311 42.7348 38.2296 42.154 38.3837 41.4677C37.7423 41.9888 37.6041 42.3954 37.578 43.0263C37.5571 43.9917 37.3531 44.6986 36.9658 45.1471C37.0909 44.5757 36.9928 44.0767 36.6713 43.65C36.7266 44.2085 36.5677 44.6325 36.1946 44.922C35.6879 45.2342 35.4635 45.6132 35.5215 46.0589C35.0559 45.6884 34.8036 45.1406 34.7643 44.4154C33.4098 45.9543 33.494 47.4657 35.0167 48.9494Z" fill="#E32618"/>
<path fill-rule="evenodd" clip-rule="evenodd" d="M36.5757 48.9495C37.9599 48.9495 39.3115 48.9495 40.6304 48.9495C41.4994 48.1663 41.6164 47.2691 40.9816 46.2576C41.0473 46.6329 40.8026 46.9745 40.2472 47.2827C40.1205 47.1261 40.073 46.897 40.1045 46.5956C40.2138 46.1685 40.0492 45.7809 39.6107 45.4328C39.7274 45.7521 39.6213 46.0311 39.2925 46.2697C39.2665 45.2006 38.9593 44.4519 38.3708 44.0234C38.467 44.5851 38.2878 45.1225 37.8331 45.6355C37.2019 46.0757 36.9235 46.548 36.9978 47.0522C36.6395 46.8166 36.4863 46.4577 36.5382 45.9755C35.3002 46.9438 35.3128 47.9351 36.5757 48.9495Z" fill="#F5911B"/>
<path fill-rule="evenodd" clip-rule="evenodd" d="M39.9232 48.9495C39.1194 48.9495 38.2853 48.9495 37.4208 48.9495C36.828 48.4202 36.8459 47.8368 37.4747 47.1992C37.4307 47.4541 37.5098 47.6533 37.712 47.7966C37.6376 47.5572 37.6808 47.3464 37.8414 47.1645C38.0732 46.9557 38.2026 46.7363 38.2298 46.5064C38.259 46.25 38.3704 46.0278 38.5641 45.8397C38.6274 46.1878 38.7712 46.4562 38.9956 46.645C39.1985 46.8182 39.2883 47.078 39.2653 47.4243C39.3211 47.6928 39.4397 47.8804 39.6212 47.9871C39.7958 47.9228 39.8785 47.816 39.8693 47.6667C40.3844 48.0542 40.4025 48.4819 39.9232 48.9495Z" fill="#FBDE2B"/>
<path fill-rule="evenodd" clip-rule="evenodd" d="M38.5 50.9351C48.2929 50.9351 56.2317 58.8786 56.2317 68.6775C56.2317 78.4764 48.2929 86.4199 38.5 86.4199C28.7069 86.4199 20.7682 78.4764 20.7682 68.6775C20.7682 58.8786 28.7069 50.9351 38.5 50.9351Z" fill="#FAB61B"/>
<path fill-rule="evenodd" clip-rule="evenodd" d="M38.5 53.6587C30.2103 53.6587 23.4901 60.3829 23.4901 68.6776C23.4901 76.9722 30.2103 83.6964 38.5 83.6964C46.7896 83.6964 53.5098 76.9722 53.5098 68.6776C53.5098 60.3829 46.7896 53.6587 38.5 53.6587Z" fill="black"/>
<path fill-rule="evenodd" clip-rule="evenodd" d="M37.9541 81.548C36.932 81.5053 36.1959 81.3748 35.2158 81.1387V65.5954L32.5687 71.333L29.195 65.2251C27.767 69.0749 28.8642 73.4057 31.9318 76.1187L32.2155 76.3696L29.9948 78.353L29.7709 78.1461C24.4846 73.2651 24.2168 65.0064 29.174 59.7968L29.491 59.4636L32.2214 64.4067L36.2886 55.9846C37.0964 55.8562 37.4968 55.8262 38.3051 55.7924V81.5627L37.9541 81.548Z" fill="white"/>
<path fill-rule="evenodd" clip-rule="evenodd" d="M39.9638 55.8777C47.2214 56.7004 52.3613 63.4289 51.2168 70.6958L51.1716 70.9824H42.5021V80.9265C41.3387 81.2818 40.7876 81.384 39.589 81.5198V55.8352L39.9638 55.8777ZM46.7329 62.9214C45.7775 61.6316 44.3909 60.6107 42.5021 60.0037V68.1593H48.442C48.3526 66.2023 47.8169 64.3852 46.7329 62.9214Z" fill="white"/>
</g>
<defs>
<clipPath id="clip0_1_16">
<rect width="77" height="100" fill="white"/>
</clipPath>
</defs>
</svg>
