<svg width="78" height="100" viewBox="0 0 78 100" fill="none" xmlns="http://www.w3.org/2000/svg">
<g clip-path="url(#clip0_1_2)">
<path fill-rule="evenodd" clip-rule="evenodd" d="M2.99536 24.5613H75.0046V42.9233H2.99536V24.5613ZM16.5666 35.5664V32.8215H22.3987V38.4303C21.2812 39.2531 20.2955 39.8149 19.4394 40.1134C18.5822 40.4108 17.5644 40.5584 16.3883 40.5584C14.9386 40.5584 13.7569 40.2908 12.8443 39.7565C11.9317 39.2256 11.224 38.4303 10.7212 37.374C10.2184 36.3209 9.96814 35.1082 9.96814 33.7423C9.96814 32.3026 10.2439 31.0524 10.7921 29.9873C11.3414 28.9243 12.1455 28.1169 13.2054 27.5651C14.0315 27.1377 15.1457 26.9262 16.5444 26.9262C17.8912 26.9262 18.9001 27.0584 19.5679 27.3216C20.2379 27.586 20.7928 27.9947 21.2336 28.5498C21.6733 29.1061 22.0055 29.8088 22.2281 30.6592L18.5955 31.3653C18.4449 30.8652 18.1924 30.4819 17.8347 30.2175C17.4758 29.9498 17.0218 29.8177 16.4647 29.8177C15.6407 29.8177 14.9818 30.1283 14.49 30.7484C13.9983 31.3686 13.7536 32.3511 13.7536 33.6927C13.7536 35.1181 14.0005 36.137 14.4978 36.7483C14.9928 37.3585 15.6861 37.6659 16.5721 37.6659C16.993 37.6659 17.3939 37.602 17.7771 37.4698C18.1581 37.3376 18.5955 37.1129 19.0906 36.8001V35.5664H16.5666ZM56.6756 27.1465H66.7693V29.9653H60.461V32.0658H66.3097V34.7557H60.461V37.353H66.9576V40.337H56.6756V27.1465ZM41.0799 27.0364H44.8487V34.8934C44.8487 35.6699 44.7346 36.4069 44.5098 37.0975C44.2861 37.7914 43.9328 38.3973 43.4532 38.9161C42.9726 39.4349 42.4698 39.7973 41.9437 40.0088C41.2106 40.3007 40.3301 40.4483 39.3046 40.4483C38.7098 40.4483 38.062 40.402 37.3598 40.3128C36.6588 40.2236 36.0707 40.0451 35.5989 39.7786C35.1271 39.5109 34.6952 39.1342 34.3053 38.6429C33.9133 38.1516 33.6464 37.6449 33.5013 37.1228C33.2676 36.2846 33.1513 35.5411 33.1513 34.8934V27.0364H36.9201V35.0806C36.9201 35.7988 37.1051 36.3606 37.4717 36.7637C37.8405 37.1691 38.3521 37.3718 39.0055 37.3718C39.6512 37.3718 40.1595 37.1713 40.5283 36.7725C40.8949 36.376 41.0799 35.812 41.0799 35.0806V27.0364Z" fill="#E6E6E6"/>
<path fill-rule="evenodd" clip-rule="evenodd" d="M39 100C34.157 92.8931 27.8332 92.9812 17.1935 92.9889C8.06329 92.9955 -0.0358137 90.5138 0.000733567 79.1717V3.88721C4.75631 7.58165 10.306 10.2605 16.6818 10.1658C25.2405 10.0402 33.9809 6.24773 39 0C44.0192 6.24773 52.7595 10.0402 61.3183 10.1658C67.6941 10.2605 73.2438 7.58165 77.9993 3.88721V79.1717C78.0359 90.5138 69.9368 92.9955 60.8066 92.9889C50.1669 92.9812 43.8431 92.8931 39 100ZM39 92.7653C34.8591 87.7259 27.7556 87.2578 20.9313 87.3327C11.9118 87.4329 4.63006 86.2576 4.77514 74.8714V10.0226C9.05671 12.9625 13.428 13.8745 18.4029 13.6608C25.2505 13.3678 32.653 11.1439 39 5.28722C45.3471 11.1439 52.7496 13.3678 59.5972 13.6608C64.5721 13.8745 68.9434 12.9625 73.2249 10.0226V74.8714C73.37 86.2576 66.0882 87.4329 57.0688 87.3327C50.2444 87.2578 43.141 87.7259 39 92.7653Z" fill="white"/>
<path fill-rule="evenodd" clip-rule="evenodd" d="M27.5918 24.5613H50.4084V42.9233H27.5918V24.5613ZM41.08 27.0364H44.8488V34.8934C44.8488 35.6699 44.7347 36.4069 44.5099 37.0975C44.2862 37.7914 43.9329 38.3973 43.4533 38.9161C42.9727 39.4349 42.4699 39.7973 41.9438 40.0088C41.2107 40.3007 40.3302 40.4483 39.3047 40.4483C38.7099 40.4483 38.062 40.402 37.3599 40.3128C36.6588 40.2236 36.0708 40.0451 35.599 39.7786C35.1272 39.5109 34.6953 39.1342 34.3054 38.6429C33.9134 38.1516 33.6465 37.6449 33.5014 37.1228C33.2677 36.2846 33.1514 35.5411 33.1514 34.8934V27.0364H36.9202V35.0806C36.9202 35.7988 37.1052 36.3606 37.4718 36.7637C37.8405 37.1691 38.3522 37.3718 39.0056 37.3718C39.6513 37.3718 40.1596 37.1713 40.5284 36.7725C40.895 36.376 41.08 35.812 41.08 35.0806V27.0364Z" fill="white"/>
<path fill-rule="evenodd" clip-rule="evenodd" d="M39 17.1802C42.3137 17.1802 45.0348 19.6982 45.336 22.9157H32.6641C32.9653 19.6982 35.6864 17.1802 39 17.1802ZM52.2302 19.815L45.8277 21.6027C45.9474 22.0257 46.0271 22.4652 46.0647 22.9157L52.6898 22.3583C52.6167 21.4848 52.4616 20.6345 52.2302 19.815ZM48.6585 16.6272L44.7634 19.403C45.0237 19.7632 45.2507 20.1487 45.439 20.5552L49.7904 18.5581C49.4736 17.8774 49.0937 17.2308 48.6585 16.6272ZM46.7713 12.241L43.0103 17.6946C43.3802 17.9468 43.7246 18.2332 44.0391 18.5493L48.7648 13.8977C48.1546 13.2852 47.4879 12.7301 46.7713 12.241ZM41.977 12.067L40.7765 16.6812C41.215 16.7935 41.637 16.9466 42.0379 17.1361L44.0901 12.8303C43.4178 12.5131 42.7113 12.2553 41.977 12.067ZM25.7699 19.815L32.1723 21.6027C32.0527 22.0257 31.973 22.4652 31.9342 22.9157L25.3103 22.3583C25.3834 21.4848 25.5384 20.6345 25.7699 19.815ZM29.3416 16.6272L33.2355 19.403C32.9764 19.7632 32.7493 20.1487 32.5611 20.5552L28.2097 18.5581C28.5265 17.8774 28.9063 17.2308 29.3416 16.6272ZM31.2288 12.241L34.9898 17.6946C34.6199 17.9468 34.2755 18.2332 33.9609 18.5493L29.2353 13.8977C29.8455 13.2852 30.5122 12.7301 31.2288 12.241ZM36.0231 12.067L37.2236 16.6812C36.7851 16.7935 36.3631 16.9466 35.9622 17.1361L33.91 12.8303C34.5822 12.5131 35.2888 12.2553 36.0231 12.067ZM40.2991 9.90693L39.6701 16.4895C39.2193 16.4477 38.7808 16.4477 38.33 16.4895L37.7009 9.90693C38.5748 9.82432 39.4253 9.82432 40.2991 9.90693Z" fill="#FAB61B"/>
<path fill-rule="evenodd" clip-rule="evenodd" d="M36.6721 52.2025C35.6997 51.2783 34.59 50.7 33.3429 50.4687C32.9265 50.3894 32.9166 50.233 33.3119 49.9984C34.3187 49.5798 36.2147 49.3771 39 49.3915C41.7854 49.3771 43.6814 49.5798 44.6881 49.9984C45.0835 50.233 45.0735 50.3894 44.6571 50.4687C43.4101 50.7 42.3004 51.2783 41.328 52.2025C41.266 52.2135 36.733 52.2135 36.6721 52.2025Z" fill="white"/>
<path fill-rule="evenodd" clip-rule="evenodd" d="M43.5618 48.9948C44.7258 48.3405 45.4921 47.4351 45.3393 46.273C45.2618 45.6892 44.9063 45.1197 44.4921 44.6395C43.8697 43.9587 43.6338 43.1293 43.7833 42.1523C43.3181 42.464 43.0368 43.0059 42.9394 43.7781C42.0855 43.1965 41.8009 42.2239 42.0855 40.8624C41.5783 41.1631 40.875 42.1369 40.6779 42.6226C40.0854 40.9021 39.0875 41.1136 39.3511 39.2719C36.7551 40.8569 37.3078 42.7438 35.3973 43.3199C35.3409 42.5962 34.9289 42.0157 34.1625 41.5795C34.4471 42.4277 34.1525 43.3816 33.2776 44.4401C32.5943 45.4898 32.4614 46.4316 32.8789 47.2633C33.2599 48.0244 34.0307 48.5729 34.889 48.9948H43.5618Z" fill="#FAB61B"/>
<path fill-rule="evenodd" clip-rule="evenodd" d="M35.393 48.9949C38.0676 48.9949 40.5783 48.9949 42.9228 48.9949C43.9395 47.9276 44.0912 46.7677 43.3758 45.5153C43.2606 46.033 42.9826 46.3425 42.5385 46.4416C42.8719 45.1716 42.4167 44.178 41.1741 43.4632C41.4864 44.1714 41.4809 44.7145 41.1564 45.0901C40.9615 45.0185 40.7544 44.8665 40.534 44.6352C40.2848 44.1637 40.0134 43.7639 39.7222 43.4356C39.1363 42.5974 38.7199 41.9993 38.8794 41.2932C38.2149 41.8296 38.072 42.2482 38.0454 42.8981C38.0233 43.8917 37.8118 44.6198 37.4108 45.0813C37.5404 44.4931 37.4385 43.9787 37.1063 43.5403C37.1639 44.1153 36.9988 44.5515 36.6123 44.8489C36.0874 45.1705 35.8548 45.5604 35.9157 46.0198C35.4329 45.6386 35.1715 45.0747 35.1316 44.3279C33.7284 45.9118 33.8159 47.4682 35.393 48.9949Z" fill="#E32618"/>
<path fill-rule="evenodd" clip-rule="evenodd" d="M37.0077 48.9949C38.4408 48.9949 39.8406 48.9949 41.2062 48.9949C42.1066 48.1886 42.2273 47.2655 41.5706 46.2246C41.6381 46.6101 41.3845 46.9626 40.8097 47.2799C40.6779 47.1179 40.6292 46.8822 40.6624 46.5716C40.7754 46.1321 40.6048 45.7334 40.1507 45.3754C40.2715 45.7036 40.1618 45.9911 39.8207 46.2367C39.7941 45.1363 39.4752 44.3653 38.8661 43.9247C38.9657 44.5019 38.7808 45.0559 38.309 45.5835C37.6556 46.0374 37.3676 46.5231 37.444 47.0419C37.073 46.7996 36.9147 46.4306 36.9678 45.9338C35.6864 46.9307 35.6986 47.9507 37.0077 48.9949Z" fill="#F5911B"/>
<path fill-rule="evenodd" clip-rule="evenodd" d="M40.4741 48.9949C39.6413 48.9949 38.7775 48.9949 37.8826 48.9949C37.2679 48.4508 37.2868 47.8494 37.938 47.1929C37.8926 47.4561 37.9745 47.661 38.1838 47.8086C38.1063 47.5619 38.1517 47.3449 38.3178 47.1576C38.5582 46.9428 38.6922 46.717 38.7199 46.4802C38.7509 46.2158 38.8661 45.9878 39.0665 45.7939C39.1319 46.1519 39.2814 46.4284 39.5128 46.6234C39.7233 46.8007 39.8163 47.0684 39.793 47.4253C39.8506 47.7017 39.9736 47.8945 40.1607 48.0047C40.3423 47.9386 40.4276 47.8284 40.4177 47.6742C40.9515 48.0741 40.9703 48.5136 40.4741 48.9949Z" fill="#FBDE2B"/>
<path fill-rule="evenodd" clip-rule="evenodd" d="M39.0001 51.0393C49.1425 51.0393 57.3646 59.2169 57.3646 69.3044C57.3646 79.392 49.1425 87.5696 39.0001 87.5696C28.8577 87.5696 20.6356 79.392 20.6356 69.3044C20.6356 59.2169 28.8577 51.0393 39.0001 51.0393ZM39.0001 53.8426C30.4148 53.8426 23.4542 60.7656 23.4542 69.3044C23.4542 77.8433 30.4148 84.7662 39.0001 84.7662C47.5854 84.7662 54.546 77.8433 54.546 69.3044C54.546 60.7656 47.5854 53.8426 39.0001 53.8426Z" fill="white"/>
<path fill-rule="evenodd" clip-rule="evenodd" d="M38.4341 82.5543C37.3764 82.5103 36.6134 82.3759 35.5989 82.1325V66.132L32.8567 72.0383L29.3626 65.7498C27.8841 69.713 29.0204 74.1719 32.1978 76.9653L32.4913 77.2231L30.191 79.2652L29.9595 79.0515C24.4841 74.0276 24.2072 65.5251 29.3415 60.1619L29.6694 59.8193L32.4968 64.9082L36.7097 56.2372C37.5459 56.105 37.9612 56.0742 38.7984 56.04V82.5686L38.4341 82.5543Z" fill="white"/>
<path fill-rule="evenodd" clip-rule="evenodd" d="M40.5162 56.1271C48.0327 56.9741 53.3554 63.9015 52.1703 71.3818L52.1238 71.677H43.1454V81.9144C41.9404 82.2801 41.3689 82.3858 40.1274 82.5246V56.0841L40.5162 56.1271ZM47.5266 63.3783C46.5376 62.051 45.1012 61.0001 43.1454 60.3756V68.7712H49.2964C49.2045 66.7566 48.6496 64.8862 47.5266 63.3783Z" fill="white"/>
</g>
<defs>
<clipPath id="clip0_1_2">
<rect width="78" height="100" fill="white"/>
</clipPath>
</defs>
</svg>
